<?xml version="1.0" standalone="no"?>
<!DOCTYPE svg PUBLIC "-//W3C//DTD SVG 1.1//EN" "http://www.w3.org/Graphics/SVG/1.1/DTD/svg11.dtd" >
<svg xmlns="http://www.w3.org/2000/svg" xmlns:xlink="http://www.w3.org/1999/xlink" version="1.1">
<metadata>
Created by FontForge 20150824 at Wed Aug  3 10:55:32 2016
 By Everything Fonts
a_FuturaRoundTitulCameoDecorFrame *Arsenal Company (c) 1997* FAX: (095)924-3775; e-Mail: arsenal@itco.msk.su; Phone: (095)924-5811 (Design and Featuring W.Chufarofsky)
</metadata>
<defs>
<font id="amavickfont" horiz-adv-x="573" >
  <font-face 
    font-family="amavickfont"
    font-weight="400"
    font-stretch="normal"
    units-per-em="1000"
    panose-1="2 15 8 2 2 2 4 2 2 4"
    ascent="800"
    descent="-200"
    x-height="591"
    cap-height="599"
    bbox="9 -178 954 978"
    underline-thickness="0"
    underline-position="0"
    unicode-range="U+0020-203A"
  />
<missing-glyph horiz-adv-x="823" 
d="M40 0v978h743v-978h-743zM80 40h663v898h-663v-898z" />
    <glyph glyph-name=".notdef" horiz-adv-x="823" 
d="M40 0v978h743v-978h-743zM80 40h663v898h-663v-898z" />
    <glyph glyph-name=".null" horiz-adv-x="0" 
 />
    <glyph glyph-name="nonmarkingreturn" horiz-adv-x="333" 
 />
    <glyph glyph-name="space" unicode=" " horiz-adv-x="369" 
 />
    <glyph glyph-name="exclam" unicode="!" horiz-adv-x="293" 
d="M75 56q0 -31 21 -52.5t51 -21.5t51 22t21 52t-21 51t-51 21t-51 -21t-21 -51zM212 269v244q0 95 -65 95t-65 -95v-244q0 -96 65 -96t65 96z" />
    <glyph glyph-name="quotedbl" unicode="&#x22;" horiz-adv-x="447" 
d="M232 548v-155q0 -17 11.5 -27t28.5 -10q16 0 27.5 10t11.5 27v155q0 16 -11.5 26t-27.5 10q-17 0 -28.5 -10t-11.5 -26zM100 548v-155q0 -17 11.5 -27t27.5 -10t28 10t12 27v155q0 16 -12 26t-28 10t-27.5 -10t-11.5 -26z" />
    <glyph glyph-name="numbersign" unicode="#" horiz-adv-x="726" 
d="M532 242l18 79h56q31 0 46.5 10.5t15.5 37.5q0 25 -16 35.5t-45 10.5h-35l19 92q1 6 3 21.5t2 23.5q0 20 -17 31.5t-43 11.5q-21 0 -35.5 -14.5t-21.5 -49.5l-26 -116h-105l20 92q1 6 3.5 21.5t2.5 23.5q0 20 -17.5 31.5t-44.5 11.5q-20 0 -35 -14.5t-23 -49.5l-25 -116
h-70q-31 0 -47 -10.5t-16 -35.5q0 -26 16 -37t46 -11h50l-18 -79h-54q-31 0 -47 -11t-16 -37t16 -36.5t46 -10.5h34l-13 -55q-3 -10 -4 -22t-1 -20q0 -33 18 -45.5t39 -12.5q25 0 39 18t21 48l20 89h104l-13 -55q-5 -22 -5 -42q0 -33 18 -45.5t40 -12.5q25 0 38.5 18
t20.5 48l20 89h55q63 0 63 47q0 48 -62 48h-35zM327 321h105l-18 -79h-104z" />
    <glyph glyph-name="dollar" unicode="$" horiz-adv-x="558" 
d="M249 -16v-52q0 -24 7 -35t26 -11q33 0 33 46v55q41 5 75 21.5t58 43t37.5 60t13.5 71.5q0 67 -40 109.5t-123 70.5q-25 8 -45 14t-34 13t-21 17t-7 26q0 22 17 36.5t48 14.5q27 0 54.5 -10.5t51.5 -10.5q29 0 45 15.5t16 41.5q0 34 -38 57.5t-108 29.5v39q0 22 -6.5 33
t-26.5 11q-33 0 -33 -44v-43q-78 -15 -121.5 -65t-43.5 -118q0 -69 41.5 -105.5t126.5 -62.5q48 -15 75.5 -30.5t27.5 -51.5q0 -26 -19 -43t-48 -17q-44 0 -80 14.5t-64 14.5q-31 0 -48.5 -16.5t-17.5 -43.5q0 -33 44 -60t127 -35z" />
    <glyph glyph-name="percent" unicode="%" horiz-adv-x="684" 
d="M51 467q0 -28 10 -52t27.5 -42t40.5 -28t49 -10q27 0 50 10t40 28t27 42t10 52q0 27 -10 51t-27 42t-40 28.5t-50 10.5q-26 0 -49 -10t-40.5 -28t-27.5 -42t-10 -52zM136 467q0 19 13 31t29 12q18 0 31 -12t13 -31t-13 -31.5t-31 -12.5q-16 0 -29 12.5t-13 31.5zM361 125
q0 -56 37.5 -94t90.5 -38q26 0 49.5 10t40.5 28t27 42t10 52q0 55 -37 93.5t-90 38.5q-26 0 -49.5 -10t-41 -28t-27.5 -42t-10 -52zM446 125q0 19 13 31t30 12t29.5 -12t12.5 -31t-12.5 -31.5t-29.5 -12.5t-30 12.5t-13 31.5zM337 200l30 54l148 258q10 16 13 29t3 20
q0 21 -14.5 31.5t-34.5 10.5q-19 0 -31.5 -12.5t-26.5 -34.5l-268 -467q-13 -23 -16.5 -34.5t-3.5 -20.5q0 -21 14 -34.5t34 -13.5q31 0 57 47z" />
    <glyph glyph-name="ampersand" unicode="&#x26;" horiz-adv-x="700" 
d="M458 49q26 -30 45 -45.5t40 -15.5q23 0 39.5 15.5t16.5 40.5q0 21 -14 41t-37 47q36 34 55 59.5t19 49.5q0 23 -15 39t-35 16q-22 0 -44 -21t-53 -59l-80 96q100 60 100 151q0 60 -46 102.5t-125 42.5q-78 0 -125 -40t-47 -99q0 -60 57 -122q-136 -66 -136 -182
q0 -39 14.5 -72t41 -58t63 -39t79.5 -14q56 0 103.5 17.5t83.5 49.5zM280 260l109 -125q-50 -44 -103 -44q-37 0 -58 22t-21 55q0 59 73 92zM322 392q-46 43 -46 74q0 20 15.5 34t38.5 14q24 0 41 -16t17 -35q0 -44 -66 -71z" />
    <glyph glyph-name="quotesingle" unicode="'" horiz-adv-x="233" 
d="M71 548v-155q0 -17 11.5 -27t27.5 -10t28 10t12 27v155q0 16 -12 26t-28 10t-27.5 -10t-11.5 -26z" />
    <glyph glyph-name="parenleft" unicode="(" horiz-adv-x="307" 
d="M185 299q0 65 9 117t20.5 91.5t20.5 66.5t9 42q0 52 -51 52q-24 0 -39.5 -19t-29.5 -57q-25 -65 -39 -139.5t-14 -153.5q0 -89 16.5 -169t42.5 -141q24 -59 63 -59q51 0 51 51q0 16 -9 42.5t-20.5 65.5t-20.5 91.5t-9 118.5z" />
    <glyph glyph-name="parenright" unicode=")" horiz-adv-x="289" 
d="M120 299q0 -65 -9.5 -117t-20.5 -91.5t-20.5 -66.5t-9.5 -43q0 -51 52 -51q23 0 38.5 19t30.5 56q25 66 38.5 140.5t13.5 153.5q0 88 -16 168.5t-42 141.5q-25 59 -63 59q-24 0 -38 -13t-14 -39q0 -15 9.5 -42t20.5 -66t20.5 -91t9.5 -118z" />
    <glyph glyph-name="asterisk" unicode="*" horiz-adv-x="405" 
d="M178 394q-2 -18 -5 -32.5t-3 -26.5q0 -20 10.5 -32.5t29.5 -12.5q20 0 31 12.5t11 32.5q0 13 -4 27.5t-5 31.5q23 -19 38.5 -31.5t33.5 -12.5q16 0 27.5 13t11.5 29q0 14 -15 29t-65 28q50 14 65 28.5t15 28.5q0 16 -11.5 29t-27.5 13q-18 0 -33.5 -12t-38.5 -31
q1 17 5 31.5t4 27.5q0 20 -11 32t-31 12q-19 0 -29.5 -12.5t-10.5 -32.5q0 -11 3 -25.5t5 -32.5q-22 17 -37 30t-35 13q-16 0 -27.5 -13t-11.5 -29q0 -14 14.5 -28.5t64.5 -28.5q-51 -13 -65 -28t-14 -29q0 -16 11.5 -29t27.5 -13q20 0 35 13.5t37 30.5z" />
    <glyph glyph-name="plus" unicode="+" horiz-adv-x="578" 
d="M253 511v-172h-166q-18 0 -27 -11.5t-9 -28.5t9.5 -28.5t26.5 -11.5h166v-172q0 -19 12 -27.5t29 -8.5t29 8.5t12 27.5v172h167q18 0 27 11.5t9 28.5t-9 28.5t-27 11.5h-167v172q0 18 -12 27t-29 9t-29 -9t-12 -27z" />
    <glyph glyph-name="comma" unicode="," horiz-adv-x="338" 
d="M162 -79l66 119q6 13 9.5 23t3.5 20q0 23 -16.5 37t-38.5 14q-35 0 -58 -45l-66 -120q-13 -22 -13 -41q0 -22 16.5 -37.5t38.5 -15.5q33 0 58 46z" />
    <glyph glyph-name="hyphen" unicode="-" horiz-adv-x="469" 
d="M156 243h169q66 0 66 56q0 57 -66 57h-168q-66 0 -66 -56q0 -27 17 -42t48 -15z" />
    <glyph glyph-name="period" unicode="." horiz-adv-x="278" 
d="M69 70q0 -32 21.5 -54t53.5 -22t54 22t22 54t-22 54t-54 22q-31 0 -53 -22t-22 -54z" />
    <glyph glyph-name="slash" unicode="/" horiz-adv-x="504" 
d="M185 29l259 489q12 24 12 40q0 22 -16 37t-39 15q-19 0 -32.5 -13t-26.5 -36l-258 -488q-11 -21 -11 -40q0 -23 16.5 -37.5t38.5 -14.5q33 0 57 48z" />
    <glyph glyph-name="zero" unicode="0" horiz-adv-x="607" 
d="M67 295q0 -147 60.5 -230t171.5 -83q110 0 171.5 83t61.5 230q0 148 -61.5 230.5t-171.5 82.5q-111 0 -171.5 -82.5t-60.5 -230.5zM299 484q48 0 74 -48.5t26 -139.5t-26 -140t-74 -49t-73.5 49t-25.5 140t26 139.5t73 48.5z" />
    <glyph glyph-name="one" unicode="1" horiz-adv-x="524" 
d="M400 125h-70v371q0 35 -2 55.5t-8 31t-17 13.5t-29 3q-27 0 -57.5 -4t-56.5 -13.5t-43.5 -24t-17.5 -35.5q0 -31 18 -40.5t44 -9.5h33v-347h-74q-29 0 -44.5 -16.5t-15.5 -46.5q0 -29 15.5 -45.5t44.5 -16.5h280q28 0 44 16.5t16 45.5q0 30 -17 46.5t-43 16.5z" />
    <glyph glyph-name="two" unicode="2" horiz-adv-x="545" 
d="M378 125h-123q96 96 150 166.5t54 141.5q0 37 -13.5 69t-38 55.5t-59.5 37t-79 13.5q-47 0 -88 -19.5t-71 -57.5q-19 -25 -30 -55t-11 -53q0 -31 19 -50.5t47 -19.5q27 0 40 17.5t26 51.5q22 60 64 60q21 0 36 -15t15 -41q0 -35 -39.5 -87t-110.5 -131q-49 -56 -78.5 -88
t-29.5 -58q0 -62 82 -62h238q96 0 96 62q0 63 -96 63z" />
    <glyph glyph-name="three" unicode="3" horiz-adv-x="544" 
d="M381 325q68 50 68 121q0 33 -13.5 62.5t-37 51.5t-56 35t-71.5 13t-73.5 -13t-61 -33t-41.5 -45.5t-15 -49.5q0 -25 17 -41t39 -16q19 0 30.5 11.5t24 25.5t29.5 25.5t49 11.5q22 0 35 -14t13 -37q0 -47 -62 -60q-30 -7 -43 -20t-13 -40q0 -29 13 -42t43 -17
q43 -7 64.5 -21t21.5 -49q0 -32 -21 -54t-50 -22q-33 0 -51.5 16t-32 35.5t-27.5 35.5t-38 16q-22 0 -40.5 -19.5t-18.5 -44.5q0 -31 14.5 -60.5t41.5 -53t65 -37.5t85 -14t85.5 15t66.5 41t43.5 61t15.5 75q0 101 -98 151z" />
    <glyph glyph-name="four" unicode="4" horiz-adv-x="595" 
d="M445 65v68q34 0 49.5 13.5t15.5 43.5q0 57 -65 57v216q0 69 -30 102.5t-76 33.5q-33 0 -55.5 -14.5t-44.5 -49.5l-137 -217q-22 -35 -31 -59.5t-9 -52.5q0 -34 21.5 -53.5t62.5 -19.5h176v-64q0 -76 57 -76q31 0 48.5 18.5t17.5 53.5zM322 247h-140l140 225v-225z" />
    <glyph glyph-name="five" unicode="5" horiz-adv-x="507" 
d="M225 396l9 71h139q81 0 81 62t-86 62h-164q-41 0 -62 -12.5t-26 -58.5l-19 -154q-2 -17 -3 -28.5t-1 -17.5q0 -58 52 -58q23 0 48 10.5t51 10.5q34 0 54.5 -22t20.5 -62q0 -37 -25 -63t-60 -26q-22 0 -39.5 8t-33 17t-29.5 17t-29 8q-23 0 -39.5 -17t-16.5 -43
q0 -22 15 -43.5t40.5 -38t60 -26.5t73.5 -10q50 0 91.5 17.5t71 47.5t45.5 71t16 89q0 43 -13.5 79t-37.5 62t-56.5 40.5t-70.5 14.5q-28 0 -57 -7z" />
    <glyph glyph-name="six" unicode="6" horiz-adv-x="569" 
d="M260 377q23 34 45 59t39.5 44.5t28 35.5t10.5 32q0 25 -19.5 43.5t-45.5 18.5t-57.5 -29.5t-75.5 -83.5q-138 -173 -138 -301q0 -47 15.5 -86.5t43 -68t66 -44t83.5 -15.5q48 0 88.5 16.5t70 45t46 66.5t16.5 81q0 41 -13.5 76t-37 60.5t-54 40t-64.5 14.5q-9 0 -21 -1.5
t-26 -3.5zM185 190q0 34 22.5 57.5t53.5 23.5t53.5 -23.5t22.5 -57.5t-22.5 -58.5t-53.5 -24.5t-53.5 24.5t-22.5 58.5z" />
    <glyph glyph-name="seven" unicode="7" horiz-adv-x="551" 
d="M135 467h183l-175 -360q-8 -17 -13 -31t-5 -27q0 -29 20 -48t49 -19q41 0 71 63l195 422q8 16 11 29t3 22q0 73 -98 73h-241q-82 0 -82 -61q0 -34 20.5 -48.5t61.5 -14.5z" />
    <glyph glyph-name="eight" unicode="8" horiz-adv-x="547" 
d="M130 323q-79 -50 -79 -147q0 -40 15.5 -75.5t44 -61.5t67.5 -41.5t87 -15.5t87.5 15.5t68 41.5t44 61.5t15.5 75.5q0 95 -79 147q54 48 54 118q0 35 -14 65.5t-39.5 53t-60.5 35.5t-76 13t-75.5 -13t-59.5 -35.5t-39.5 -53t-14.5 -65.5q0 -69 54 -118zM185 188
q0 37 24.5 61.5t55.5 24.5q33 0 57 -24.5t24 -61.5t-24.5 -61t-56.5 -24q-31 0 -55.5 25t-24.5 60zM205 429q0 26 17.5 44.5t42.5 18.5q26 0 44 -18.5t18 -44.5q0 -25 -18 -43.5t-44 -18.5q-24 0 -42 18.5t-18 43.5z" />
    <glyph glyph-name="nine" unicode="9" horiz-adv-x="580" 
d="M364 403q0 -35 -22 -58.5t-54 -23.5q-31 0 -53.5 23.5t-22.5 58.5q0 34 22.5 57.5t53.5 23.5q32 0 54 -23.5t22 -57.5zM289 215q-23 -34 -45 -58.5t-39.5 -44.5t-28 -35.5t-10.5 -31.5q0 -25 20 -44.5t45 -19.5t56.5 29.5t75.5 84.5q131 164 138 301q0 47 -15.5 86.5
t-43 67.5t-65.5 43.5t-83 15.5q-48 0 -88.5 -16.5t-70 -45t-46 -67t-16.5 -82.5q0 -40 13.5 -74t36.5 -59t54.5 -39.5t68.5 -14.5q16 0 43 4z" />
    <glyph glyph-name="colon" unicode=":" horiz-adv-x="260" 
d="M60 70q0 -32 21.5 -54t53.5 -22t54 22t22 54t-22 54t-54 22q-31 0 -53 -22t-22 -54zM60 397q0 -31 21.5 -53t53.5 -22t54 22t22 53t-22 53t-54 22q-31 0 -53 -22t-22 -53z" />
    <glyph glyph-name="semicolon" unicode=";" horiz-adv-x="324" 
d="M110 397q0 -31 21.5 -53t53.5 -22t54 22t22 53t-22 53t-54 22q-31 0 -53 -22t-22 -53zM173 -79l66 119q6 13 9.5 23t3.5 20q0 23 -16.5 37t-38.5 14q-35 0 -58 -45l-66 -120q-13 -22 -13 -41q0 -22 16.5 -37.5t38.5 -15.5q33 0 58 46z" />
    <glyph glyph-name="less" unicode="&#x3c;" horiz-adv-x="580" 
d="M168 297v4l336 136q14 6 18.5 14.5t4.5 29.5q0 18 -9.5 26t-23.5 8q-17 0 -36 -8l-358 -147q-31 -13 -41 -25.5t-10 -35.5t11 -36t40 -25l358 -147q18 -8 34 -8t25.5 8t9.5 27q0 20 -4.5 28t-18.5 15z" />
    <glyph glyph-name="equal" unicode="=" horiz-adv-x="600" 
d="M64 383q0 -17 11 -28.5t27 -11.5h411q16 0 27 11.5t11 28.5t-11 29t-27 12h-411q-16 0 -27 -12t-11 -29zM64 208q0 -17 11 -28.5t27 -11.5h411q16 0 27 11.5t11 28.5t-11 29t-27 12h-411q-16 0 -27 -12t-11 -29z" />
    <glyph glyph-name="greater" unicode="&#x3e;" horiz-adv-x="602" 
d="M432 301v-4l-334 -136q-16 -7 -20.5 -15t-4.5 -28q0 -19 10 -27t26 -8t34 8l358 147q29 12 39.5 25t10.5 36t-10 35.5t-40 25.5l-358 147q-19 8 -36 8q-15 0 -24.5 -8t-9.5 -26q0 -21 5 -29.5t20 -14.5z" />
    <glyph glyph-name="question" unicode="?" horiz-adv-x="513" 
d="M175 56q0 -31 21.5 -52.5t51.5 -21.5t51 22t21 52t-21 51t-51 21t-51.5 -21t-21.5 -51zM184 289v-52q0 -37 17 -56.5t46 -19.5t47 21t18 61v2q67 13 106.5 60t39.5 115q0 38 -14.5 71.5t-41 59t-63 40t-81.5 14.5q-43 0 -79.5 -13.5t-63 -35t-41 -48t-14.5 -51.5
q0 -27 15.5 -44t38.5 -17q19 0 35 13t32.5 29t34.5 29t42 13q25 0 41.5 -16t16.5 -38q0 -24 -10 -37.5t-25 -21t-33.5 -12.5t-35.5 -12t-22.5 -19t-5.5 -35z" />
    <glyph glyph-name="at" unicode="@" horiz-adv-x="882" 
d="M437 469h-2q-28 0 -58 -11.5t-54.5 -34.5t-40.5 -56.5t-16 -77.5q0 -39 12 -72t32.5 -56.5t48.5 -37t61 -13.5q53 0 82 18t44 32q8 -18 35 -34t60 -16q97 0 138 63.5t41 179.5q0 69 -26.5 125t-75 95.5t-118 61t-154.5 21.5q-83 0 -153.5 -25t-122.5 -72t-81 -115.5
t-29 -154.5q0 -87 29.5 -154.5t81.5 -114t122.5 -71t152.5 -24.5q28 0 68.5 6t77.5 16t63 23.5t26 28.5q0 13 -7 25t-23 12t-34 -6.5t-41 -14t-55 -14t-77 -6.5q-149 0 -228.5 76.5t-79.5 217.5q0 140 80 218.5t230 78.5q145 0 221.5 -63t76.5 -173q0 -88 -17.5 -132
t-69.5 -44q-21 0 -34 11.5t-13 49.5v194q0 15 -11.5 27.5t-30.5 12.5q-12 0 -23.5 -8t-17.5 -19q-36 27 -90 27zM362 289q0 43 18.5 74.5t61.5 31.5q37 0 58 -23t21 -79q0 -109 -84 -109q-37 0 -56 29.5t-19 75.5z" />
    <glyph glyph-name="A" unicode="A" horiz-adv-x="626" 
d="M316 599q-71 0 -103 -87l-154 -417q-6 -18 -6 -39q0 -28 18 -45.5t46 -17.5q46 0 65 59l24 74h209l22 -69q20 -64 71 -64q28 0 47.5 16.5t19.5 44.5q0 9 -2.5 19t-7.5 23l-149 426q-28 77 -100 77zM245 245l67 208h2l65 -208h-134z" />
    <glyph glyph-name="B" unicode="B" horiz-adv-x="591" 
d="M164 0h133q103 0 157 48.5t54 129.5q0 55 -23 85.5t-75 47.5v2q42 21 56 54t14 77q0 67 -56.5 107t-147.5 40h-110q-57 0 -75 -22.5t-18 -71.5v-412q0 -48 18.5 -66.5t72.5 -18.5zM207 116v139h65q54 0 74 -16.5t20 -56.5q0 -32 -20 -49t-72 -17h-67zM207 360v116h58
q79 0 79 -57q0 -32 -17 -45.5t-62 -13.5h-58z" />
    <glyph glyph-name="C" unicode="C" horiz-adv-x="631" 
d="M364 -7q82 0 132 29.5t50 67.5q0 23 -17 40.5t-37 17.5q-23 0 -52 -14.5t-70 -14.5q-66 0 -106 46t-40 127q0 83 39.5 131.5t102.5 48.5q37 0 66 -11.5t51 -11.5t39 17.5t17 40.5q0 18 -13 34.5t-36 29t-55 20.5t-70 8q-60 0 -111.5 -21.5t-89.5 -61t-60 -96t-22 -125.5
q0 -70 20.5 -126t58 -95t89.5 -60t114 -21z" />
    <glyph glyph-name="D" unicode="D" horiz-adv-x="688" 
d="M276 591h-108q-57 0 -75 -22.5t-18 -71.5v-412q0 -48 18.5 -66.5t72.5 -18.5h123q67 0 121 21.5t91 60.5t57 95t20 125q0 79 -34 145t-92 103q-34 22 -78 31.5t-98 9.5zM271 125h-62v341h59q163 0 163 -163q0 -178 -160 -178z" />
    <glyph glyph-name="E" unicode="E" horiz-adv-x="476" 
d="M333 591h-151q-57 0 -75 -22.5t-18 -71.5v-412q0 -48 18.5 -66.5t72.5 -18.5h157q96 0 96 62q0 63 -96 63h-114v111h95q95 0 95 62t-95 62h-95v106h110q96 0 96 62q0 63 -96 63z" />
    <glyph glyph-name="F" unicode="F" horiz-adv-x="515" 
d="M328 591h-151q-57 0 -75 -22.5t-18 -71.5v-409q0 -95 67 -95t67 95v148h95q95 0 95 62t-95 62h-95v106h110q96 0 96 62q0 63 -96 63z" />
    <glyph glyph-name="G" unicode="G" horiz-adv-x="682" 
d="M524 354h-97q-46 0 -69 -14.5t-23 -47.5q0 -32 23 -46t69 -14h46q0 -54 -32.5 -84.5t-83.5 -30.5q-65 0 -105 48.5t-40 133.5q0 83 39.5 129t105.5 46q30 0 53.5 -8.5t42.5 -18.5t34.5 -18.5t30.5 -8.5q23 0 39.5 18.5t16.5 42.5q0 21 -15 42t-43 38t-67.5 27.5
t-87.5 10.5q-66 0 -119.5 -21t-91.5 -60t-58.5 -95.5t-20.5 -126.5q0 -69 20.5 -124.5t57.5 -95.5t87.5 -61.5t110.5 -21.5q61 0 111 20t85 56.5t54 87t19 110.5q0 47 -22 67t-70 20z" />
    <glyph glyph-name="H" unicode="H" horiz-adv-x="685" 
d="M203 88v151h248v-151q0 -95 67 -95t67 95v415q0 96 -67 96t-67 -96v-139h-248v139q0 96 -67 96t-67 -96v-415q0 -95 67 -95t67 95z" />
    <glyph glyph-name="I" unicode="I" horiz-adv-x="308" 
d="M229 88v415q0 96 -67 96t-67 -96v-415q0 -95 67 -95t67 95z" />
    <glyph glyph-name="J" unicode="J" horiz-adv-x="397" 
d="M315 10v493q0 96 -69 96q-66 0 -66 -96v-458q0 -29 -8 -37t-37 -8q-37 0 -49.5 -14.5t-12.5 -43.5q0 -34 28.5 -48t78.5 -14q57 0 96 37.5t39 92.5z" />
    <glyph glyph-name="K" unicode="K" horiz-adv-x="594" 
d="M78 503v-415q0 -95 67 -95t67 95v140l24 19l178 -207q18 -22 34.5 -34.5t38.5 -12.5t42 18t20 44q0 27 -34 67l-181 203l137 135q34 34 43.5 48t9.5 27q0 25 -20.5 44.5t-45.5 19.5q-18 0 -36 -14t-38 -34l-172 -177v129q0 96 -67 96t-67 -96z" />
    <glyph glyph-name="L" unicode="L" horiz-adv-x="476" 
d="M69 503v-418q0 -48 18.5 -66.5t72.5 -18.5h157q96 0 96 62q0 63 -96 63h-114v378q0 96 -67 96t-67 -96z" />
    <glyph glyph-name="M" unicode="M" horiz-adv-x="844" 
d="M424 187l78 332q8 35 33.5 57.5t62.5 22.5q44 0 72 -28t34 -65l65 -403q2 -17 3 -27.5t1 -17.5q0 -35 -15.5 -50t-44.5 -15q-31 0 -47 18.5t-23 67.5l-51 324h-2l-76 -299q-15 -59 -37.5 -77t-53.5 -18q-32 0 -54.5 18t-37.5 77l-77 299h-1l-51 -324q-8 -49 -23 -67.5
t-47 -18.5q-28 0 -44.5 15t-16.5 50q0 12 6 45l65 403q5 37 33 65t71 28q38 0 63.5 -22.5t33.5 -57.5l78 -332h3z" />
    <glyph glyph-name="N" unicode="N" horiz-adv-x="624" 
d="M167 88v272l244 -322q37 -49 77 -49q33 0 47 21.5t14 62.5v430q0 96 -67 96t-67 -96v-277l-249 329q-16 21 -32 32.5t-39 11.5q-33 0 -47.5 -23.5t-14.5 -67.5v-420q0 -95 67 -95t67 95z" />
    <glyph glyph-name="O" unicode="O" horiz-adv-x="699" 
d="M75 295q0 -69 20.5 -124.5t57.5 -95t89 -61t116 -21.5t116.5 21.5t89.5 61t57 95t20 124.5t-20.5 125t-58 96t-89.5 61.5t-115 21.5t-115 -21.5t-89.5 -61.5t-58 -96t-20.5 -125zM218 293q0 85 39 133.5t101 48.5q63 0 102 -48.5t39 -133.5q0 -82 -39.5 -129t-101.5 -47
t-101 47t-39 129z" />
    <glyph glyph-name="P" unicode="P" horiz-adv-x="569" 
d="M261 312h-58v155h58q93 0 93 -77q0 -78 -93 -78zM203 88v102h91q98 0 152 53.5t54 146.5q0 92 -57.5 146.5t-159.5 54.5h-121q-57 0 -75 -22.5t-18 -71.5v-409q0 -95 67 -95t67 95z" />
    <glyph glyph-name="Q" unicode="Q" horiz-adv-x="717" 
d="M357 599q-62 0 -114 -21.5t-89.5 -61.5t-58 -96t-20.5 -125q0 -68 20 -124t57 -95.5t89 -61t116 -21.5q43 0 78 7t66 26l43 -41q29 -26 58 -26q22 0 39 16.5t17 39.5q0 31 -28 57l-41 37q52 81 52 186q0 69 -20.5 125t-58 96t-90 61.5t-115.5 21.5zM402 124
q-11 -4 -21.5 -5.5t-21.5 -1.5q-64 0 -103 47t-39 129q0 85 39 133.5t101 48.5q64 0 102.5 -48.5t38.5 -133.5q0 -47 -18 -94q-19 19 -33.5 29t-31.5 10q-21 0 -35.5 -15.5t-14.5 -38.5q0 -17 9.5 -30.5t27.5 -29.5z" />
    <glyph glyph-name="R" unicode="R" horiz-adv-x="571" 
d="M263 323h-62v144h64q41 0 62.5 -18.5t21.5 -51.5q0 -35 -22 -54.5t-64 -19.5zM201 88v146l157 -198q19 -22 35.5 -34.5t36.5 -12.5q28 0 46 18.5t18 44.5q0 32 -39 77l-106 118q67 11 103.5 53.5t36.5 106.5q0 82 -57.5 133t-167.5 51h-104q-57 0 -75 -22.5t-18 -71.5
v-409q0 -95 67 -95t67 95z" />
    <glyph glyph-name="S" unicode="S" horiz-adv-x="531" 
d="M483 185q0 66 -39.5 107.5t-119.5 68.5q-49 16 -76 26.5t-27 41.5q0 22 16.5 36t47.5 14q25 0 51.5 -10.5t50.5 -10.5q29 0 44.5 15t15.5 41q0 34 -43.5 59.5t-114.5 25.5q-48 0 -86.5 -14t-65.5 -38.5t-42 -58t-15 -72.5q0 -67 40 -102.5t123 -60.5q47 -14 74 -29.5
t27 -50.5q0 -25 -19 -41.5t-47 -16.5q-43 0 -78.5 14t-61.5 14q-30 0 -47.5 -16.5t-17.5 -41.5q0 -18 14 -34.5t39 -29.5t59.5 -20.5t74.5 -7.5q51 0 92.5 14.5t70.5 40t44.5 60.5t15.5 77z" />
    <glyph glyph-name="T" unicode="T" horiz-adv-x="575" 
d="M167 466h50v-378q0 -95 67 -95t67 95v378h50q96 0 96 62q0 63 -96 63h-234q-96 0 -96 -63q0 -62 96 -62z" />
    <glyph glyph-name="U" unicode="U" horiz-adv-x="651" 
d="M71 503v-239q0 -133 68.5 -202t184.5 -69t185 69t69 202v239q0 96 -68 96q-67 0 -67 -96v-224q0 -157 -119 -157t-119 157v224q0 96 -67 96t-67 -96z" />
    <glyph glyph-name="V" unicode="V" horiz-adv-x="654" 
d="M86 493l180 -453q11 -26 25.5 -38t38.5 -12q25 0 40.5 13t27.5 42l175 445q5 12 7 24t2 22q0 28 -16 45.5t-47 17.5q-26 0 -42 -15t-27 -49l-116 -330l-124 335q-12 32 -26.5 45.5t-37.5 13.5q-30 0 -49 -19.5t-19 -48.5q0 -19 8 -38z" />
    <glyph glyph-name="W" unicode="W" horiz-adv-x="899" 
d="M364 75l83 331l89 -338q19 -75 89 -75q47 0 64.5 21.5t29.5 67.5l102 415q3 10 4 20.5t1 18.5q0 26 -18 44.5t-48 18.5t-45.5 -16.5t-22.5 -51.5l-71 -367l-96 376q-15 59 -74 59t-74 -57l-98 -378l-71 376q-11 59 -65 59q-30 0 -49 -17.5t-19 -45.5q0 -12 1 -21t4 -20
l94 -413q11 -47 32 -68t61 -21q77 0 97 82z" />
    <glyph glyph-name="X" unicode="X" horiz-adv-x="677" 
d="M204 43l119 168l120 -169q34 -49 73 -49q25 0 43 17.5t18 39.5q0 12 -6 27.5t-24 40.5l-145 195l109 158q31 45 31 69q0 22 -18.5 40.5t-40.5 18.5q-37 0 -73 -51l-85 -125l-82 124q-35 52 -70 52q-29 0 -47 -18.5t-18 -43.5q0 -11 7 -26t23 -40l108 -158l-143 -194
q-19 -25 -24.5 -41t-5.5 -27q0 -22 18 -40t42 -18q19 0 36 12.5t35 37.5z" />
    <glyph glyph-name="Y" unicode="Y" horiz-adv-x="593" 
d="M401 548l-102 -145l-101 144q-37 52 -69 52q-29 0 -47 -18.5t-18 -41.5q0 -13 5.5 -27t24.5 -41l137 -193v-191q0 -94 67 -94t67 94v191l136 193q19 27 25.5 41t6.5 27q0 22 -18 41t-41 19q-38 0 -73 -51z" />
    <glyph glyph-name="Z" unicode="Z" horiz-adv-x="598" 
d="M436 125h-191l236 318q23 32 31 51.5t8 33.5q0 34 -24 48.5t-82 14.5h-238q-96 0 -96 -61t96 -61h174l-242 -320q-24 -32 -30.5 -49.5t-6.5 -32.5q0 -67 93 -67h272q96 0 96 62q0 63 -96 63z" />
    <glyph glyph-name="bracketleft" unicode="[" horiz-adv-x="289" 
d="M192 668h-59q-57 0 -75 -23t-18 -72v-568q0 -48 19 -66.5t73 -18.5h59q66 0 66 44q0 20 -17 32.5t-48 12.5h-40v570h39q66 0 66 46q0 43 -65 43z" />
    <glyph glyph-name="backslash" unicode="\" horiz-adv-x="518" 
d="M78 518l258 -489q26 -48 58 -48q22 0 39 14.5t17 37.5q0 18 -12 40l-259 488q-12 23 -25 36t-32 13q-22 0 -38.5 -15t-16.5 -37q0 -18 11 -40z" />
    <glyph glyph-name="bracketright" unicode="]" horiz-adv-x="463" 
d="M199 668h-59q-65 0 -65 -43q0 -46 66 -46h39v-570h-40q-32 0 -48.5 -12.5t-16.5 -32.5q0 -44 66 -44h59q54 0 73 18.5t19 66.5v568q0 49 -18.5 72t-74.5 23z" />
    <glyph glyph-name="asciicircum" unicode="^" horiz-adv-x="496" 
d="M160 410l86 52l87 -52q27 -16 46 -16q20 0 33.5 15t13.5 37q0 18 -7.5 30t-22.5 24l-109 85q-9 7 -20 10.5t-21 3.5q-9 0 -20 -3.5t-20 -10.5l-109 -85q-15 -12 -22.5 -24t-7.5 -30q0 -23 13.5 -37.5t33.5 -14.5q19 0 46 16z" />
    <glyph glyph-name="underscore" unicode="_" horiz-adv-x="565" 
 />
    <glyph glyph-name="grave" unicode="`" horiz-adv-x="300" 
d="M91 575l63 -70q22 -25 45 -25q19 0 32 12.5t13 33.5q0 18 -15 36l-60 84q-20 26 -47 26q-22 0 -37.5 -15t-15.5 -37t22 -45z" />
    <glyph glyph-name="a" unicode="a" horiz-adv-x="666" 
d="M327 599q-71 0 -103 -87l-154 -417q-6 -18 -6 -39q0 -28 18 -45.5t46 -17.5q46 0 65 59l24 74h209l22 -69q20 -64 71 -64q28 0 47.5 16.5t19.5 44.5q0 9 -2.5 19t-7.5 23l-149 426q-28 77 -100 77zM256 245l67 208h2l65 -208h-134z" />
    <glyph glyph-name="b" unicode="b" horiz-adv-x="560" 
d="M158 0h133q103 0 157 48.5t54 129.5q0 55 -23 85.5t-75 47.5v2q42 21 56 54t14 77q0 67 -56.5 107t-147.5 40h-110q-57 0 -75 -22.5t-18 -71.5v-412q0 -48 18.5 -66.5t72.5 -18.5zM201 116v139h65q54 0 74 -16.5t20 -56.5q0 -32 -20 -49t-72 -17h-67zM201 360v116h58
q79 0 79 -57q0 -32 -17 -45.5t-62 -13.5h-58z" />
    <glyph glyph-name="c" unicode="c" horiz-adv-x="591" 
d="M349 -7q82 0 132 29.5t50 67.5q0 23 -17 40.5t-37 17.5q-23 0 -52 -14.5t-70 -14.5q-66 0 -106 46t-40 127q0 83 39.5 131.5t102.5 48.5q37 0 66 -11.5t51 -11.5t39 17.5t17 40.5q0 18 -13 34.5t-36 29t-55 20.5t-70 8q-60 0 -111.5 -21.5t-89.5 -61t-60 -96t-22 -125.5
q0 -70 20.5 -126t58 -95t89.5 -60t114 -21z" />
    <glyph glyph-name="d" unicode="d" horiz-adv-x="647" 
d="M270 591h-108q-57 0 -75 -22.5t-18 -71.5v-412q0 -48 18.5 -66.5t72.5 -18.5h123q67 0 121 21.5t91 60.5t57 95t20 125q0 79 -34 145t-92 103q-34 22 -78 31.5t-98 9.5zM265 125h-62v341h59q163 0 163 -163q0 -178 -160 -178z" />
    <glyph glyph-name="e" unicode="e" horiz-adv-x="485" 
d="M311 591h-151q-57 0 -75 -22.5t-18 -71.5v-412q0 -48 18.5 -66.5t72.5 -18.5h157q96 0 96 62q0 63 -96 63h-114v111h95q95 0 95 62t-95 62h-95v106h110q96 0 96 62q0 63 -96 63z" />
    <glyph glyph-name="f" unicode="f" horiz-adv-x="485" 
d="M313 591h-151q-57 0 -75 -22.5t-18 -71.5v-409q0 -95 67 -95t67 95v148h95q95 0 95 62t-95 62h-95v106h110q96 0 96 62q0 63 -96 63z" />
    <glyph glyph-name="g" unicode="g" horiz-adv-x="683" 
d="M520 354h-97q-46 0 -69 -14.5t-23 -47.5q0 -32 23 -46t69 -14h46q0 -54 -32.5 -84.5t-83.5 -30.5q-65 0 -105 48.5t-40 133.5q0 83 39.5 129t105.5 46q30 0 53.5 -8.5t42.5 -18.5t34.5 -18.5t30.5 -8.5q23 0 39.5 18.5t16.5 42.5q0 21 -15 42t-43 38t-67.5 27.5
t-87.5 10.5q-66 0 -119.5 -21t-91.5 -60t-58.5 -95.5t-20.5 -126.5q0 -69 20.5 -124.5t57.5 -95.5t87.5 -61.5t110.5 -21.5q61 0 111 20t85 56.5t54 87t19 110.5q0 47 -22 67t-70 20z" />
    <glyph glyph-name="h" unicode="h" horiz-adv-x="662" 
d="M207 88v151h248v-151q0 -95 67 -95t67 95v415q0 96 -67 96t-67 -96v-139h-248v139q0 96 -67 96t-67 -96v-415q0 -95 67 -95t67 95z" />
    <glyph glyph-name="i" unicode="i" horiz-adv-x="291" 
d="M205 88v415q0 96 -67 96t-67 -96v-415q0 -95 67 -95t67 95z" />
    <glyph glyph-name="j" unicode="j" horiz-adv-x="382" 
d="M311 10v493q0 96 -69 96q-66 0 -66 -96v-458q0 -29 -8 -37t-37 -8q-37 0 -49.5 -14.5t-12.5 -43.5q0 -34 28.5 -48t78.5 -14q57 0 96 37.5t39 92.5z" />
    <glyph glyph-name="k" unicode="k" horiz-adv-x="605" 
d="M69 503v-415q0 -95 67 -95t67 95v140l24 19l178 -207q18 -22 34.5 -34.5t38.5 -12.5t42 18t20 44q0 27 -34 67l-181 203l137 135q34 34 43.5 48t9.5 27q0 25 -20.5 44.5t-45.5 19.5q-18 0 -36 -14t-38 -34l-172 -177v129q0 96 -67 96t-67 -96z" />
    <glyph glyph-name="l" unicode="l" horiz-adv-x="480" 
d="M71 503v-418q0 -48 18.5 -66.5t72.5 -18.5h157q96 0 96 62q0 63 -96 63h-114v378q0 96 -67 96t-67 -96z" />
    <glyph glyph-name="m" unicode="m" horiz-adv-x="835" 
d="M426 187l78 332q8 35 33.5 57.5t62.5 22.5q44 0 72 -28t34 -65l65 -403q2 -17 3 -27.5t1 -17.5q0 -35 -15.5 -50t-44.5 -15q-31 0 -47 18.5t-23 67.5l-51 324h-2l-76 -299q-15 -59 -37.5 -77t-53.5 -18q-32 0 -54.5 18t-37.5 77l-77 299h-1l-51 -324q-8 -49 -23 -67.5
t-47 -18.5q-28 0 -44.5 15t-16.5 50q0 12 6 45l65 403q5 37 33 65t71 28q38 0 63.5 -22.5t33.5 -57.5l78 -332h3z" />
    <glyph glyph-name="n" unicode="n" horiz-adv-x="691" 
d="M201 88v272l244 -322q37 -49 77 -49q33 0 47 21.5t14 62.5v430q0 96 -67 96t-67 -96v-277l-249 329q-16 21 -32 32.5t-39 11.5q-33 0 -47.5 -23.5t-14.5 -67.5v-420q0 -95 67 -95t67 95z" />
    <glyph glyph-name="o" unicode="o" horiz-adv-x="713" 
d="M71 295q0 -69 20.5 -124.5t57.5 -95t89 -61t116 -21.5t116.5 21.5t89.5 61t57 95t20 124.5t-20.5 125t-58 96t-89.5 61.5t-115 21.5t-115 -21.5t-89.5 -61.5t-58 -96t-20.5 -125zM214 293q0 85 39 133.5t101 48.5q63 0 102 -48.5t39 -133.5q0 -82 -39.5 -129t-101.5 -47
t-101 47t-39 129z" />
    <glyph glyph-name="p" unicode="p" horiz-adv-x="584" 
d="M265 312h-58v155h58q93 0 93 -77q0 -78 -93 -78zM207 88v102h91q98 0 152 53.5t54 146.5q0 92 -57.5 146.5t-159.5 54.5h-121q-57 0 -75 -22.5t-18 -71.5v-409q0 -95 67 -95t67 95z" />
    <glyph glyph-name="q" unicode="q" horiz-adv-x="718" 
d="M353 599q-62 0 -114 -21.5t-89.5 -61.5t-58 -96t-20.5 -125q0 -68 20 -124t57 -95.5t89 -61t116 -21.5q43 0 78 7t66 26l43 -41q29 -26 58 -26q22 0 39 16.5t17 39.5q0 31 -28 57l-41 37q52 81 52 186q0 69 -20.5 125t-58 96t-90 61.5t-115.5 21.5zM398 124
q-11 -4 -21.5 -5.5t-21.5 -1.5q-64 0 -103 47t-39 129q0 85 39 133.5t101 48.5q64 0 102.5 -48.5t38.5 -133.5q0 -47 -18 -94q-19 19 -33.5 29t-31.5 10q-21 0 -35.5 -15.5t-14.5 -38.5q0 -17 9.5 -30.5t27.5 -29.5z" />
    <glyph glyph-name="r" unicode="r" horiz-adv-x="562" 
d="M260 323h-62v144h64q41 0 62.5 -18.5t21.5 -51.5q0 -35 -22 -54.5t-64 -19.5zM198 88v146l157 -198q19 -22 35.5 -34.5t36.5 -12.5q28 0 46 18.5t18 44.5q0 32 -39 77l-106 118q67 11 103.5 53.5t36.5 106.5q0 82 -57.5 133t-167.5 51h-104q-57 0 -75 -22.5t-18 -71.5
v-409q0 -95 67 -95t67 95z" />
    <glyph glyph-name="s" unicode="s" horiz-adv-x="571" 
d="M483 185q0 66 -39.5 107.5t-119.5 68.5q-49 16 -76 26.5t-27 41.5q0 22 16.5 36t47.5 14q25 0 51.5 -10.5t50.5 -10.5q29 0 44.5 15t15.5 41q0 34 -43.5 59.5t-114.5 25.5q-48 0 -86.5 -14t-65.5 -38.5t-42 -58t-15 -72.5q0 -67 40 -102.5t123 -60.5q47 -14 74 -29.5
t27 -50.5q0 -25 -19 -41.5t-47 -16.5q-43 0 -78.5 14t-61.5 14q-30 0 -47.5 -16.5t-17.5 -41.5q0 -18 14 -34.5t39 -29.5t59.5 -20.5t74.5 -7.5q51 0 92.5 14.5t70.5 40t44.5 60.5t15.5 77z" />
    <glyph glyph-name="t" unicode="t" horiz-adv-x="560" 
d="M160 466h50v-378q0 -95 67 -95t67 95v378h50q96 0 96 62q0 63 -96 63h-234q-96 0 -96 -63q0 -62 96 -62z" />
    <glyph glyph-name="u" unicode="u" horiz-adv-x="675" 
d="M71 503v-239q0 -133 68.5 -202t184.5 -69t185 69t69 202v239q0 96 -68 96q-67 0 -67 -96v-224q0 -157 -119 -157t-119 157v224q0 96 -67 96t-67 -96z" />
    <glyph glyph-name="v" unicode="v" horiz-adv-x="660" 
d="M75 493l180 -453q11 -26 25.5 -38t38.5 -12q25 0 40.5 13t27.5 42l175 445q5 12 7 24t2 22q0 28 -16 45.5t-47 17.5q-26 0 -42 -15t-27 -49l-116 -330l-124 335q-12 32 -26.5 45.5t-37.5 13.5q-30 0 -49 -19.5t-19 -48.5q0 -19 8 -38z" />
    <glyph glyph-name="w" unicode="w" horiz-adv-x="893" 
d="M360 75l83 331l89 -338q19 -75 89 -75q47 0 64.5 21.5t29.5 67.5l102 415q3 10 4 20.5t1 18.5q0 26 -18 44.5t-48 18.5t-45.5 -16.5t-22.5 -51.5l-71 -367l-96 376q-15 59 -74 59t-74 -57l-98 -378l-71 376q-11 59 -65 59q-30 0 -49 -17.5t-19 -45.5q0 -12 1 -21t4 -20
l94 -413q11 -47 32 -68t61 -21q77 0 97 82z" />
    <glyph glyph-name="x" unicode="x" horiz-adv-x="642" 
d="M200 43l119 168l120 -169q34 -49 73 -49q25 0 43 17.5t18 39.5q0 12 -6 27.5t-24 40.5l-145 195l109 158q31 45 31 69q0 22 -18.5 40.5t-40.5 18.5q-37 0 -73 -51l-85 -125l-82 124q-35 52 -70 52q-29 0 -47 -18.5t-18 -43.5q0 -11 7 -26t23 -40l108 -158l-143 -194
q-19 -25 -24.5 -41t-5.5 -27q0 -22 18 -40t42 -18q19 0 36 12.5t35 37.5z" />
    <glyph glyph-name="y" unicode="y" horiz-adv-x="627" 
d="M408 548l-102 -145l-101 144q-37 52 -69 52q-29 0 -47 -18.5t-18 -41.5q0 -13 5.5 -27t24.5 -41l137 -193v-191q0 -94 67 -94t67 94v191l136 193q19 27 25.5 41t6.5 27q0 22 -18 41t-41 19q-38 0 -73 -51z" />
    <glyph glyph-name="z" unicode="z" horiz-adv-x="600" 
d="M425 125h-191l236 318q23 32 31 51.5t8 33.5q0 34 -24 48.5t-82 14.5h-238q-96 0 -96 -61t96 -61h174l-242 -320q-24 -32 -30.5 -49.5t-6.5 -32.5q0 -67 93 -67h272q96 0 96 62q0 63 -96 63z" />
    <glyph glyph-name="braceleft" unicode="{" horiz-adv-x="442" 
d="M200 298v3q43 13 56.5 41.5t13.5 78.5v97q0 53 10 67t37 14q41 0 41 43q0 42 -41 42q-44 0 -72 -6t-44.5 -21.5t-23 -42.5t-6.5 -68v-101q0 -55 -16 -79.5t-43 -24.5q-48 0 -48 -42q0 -41 48 -41q27 0 43 -23.5t16 -78.5v-103q0 -42 6.5 -69t23 -42t44.5 -20.5t72 -5.5
q41 0 41 42t-41 42q-27 0 -37 15t-10 66v98q0 50 -13.5 78t-56.5 41z" />
    <glyph glyph-name="bar" unicode="|" horiz-adv-x="227" 
d="M153 687h-84v-794h84v794z" />
    <glyph glyph-name="braceright" unicode="}" horiz-adv-x="418" 
d="M225 301v-3q-42 -13 -55.5 -41t-13.5 -78v-98q0 -51 -10.5 -66t-36.5 -15q-42 0 -42 -42t42 -42q43 0 71.5 5.5t44.5 20.5t22.5 42t6.5 69v103q0 55 17 78.5t43 23.5q47 0 47 41q0 42 -47 42q-26 0 -43 24.5t-17 79.5v101q0 41 -6.5 68t-22.5 42.5t-44.5 21.5t-71.5 6
q-42 0 -42 -42q0 -43 42 -43q26 0 36.5 -14t10.5 -67v-97q0 -50 13.5 -78.5t55.5 -41.5z" />
    <glyph glyph-name="asciitilde" unicode="~" horiz-adv-x="664" 
d="M235 339q-37 0 -67 -9.5t-51.5 -24.5t-33.5 -34.5t-12 -39.5q0 -48 51 -48q21 0 32 9t20.5 19.5t22.5 19.5t38 9q28 0 39.5 -10t25.5 -23q47 -47 134 -47q36 0 66.5 9t52.5 24t34.5 34t12.5 40q0 23 -14.5 35.5t-39.5 12.5q-21 0 -31.5 -9t-19.5 -19.5t-22 -19.5t-39 -9
q-16 0 -25.5 3.5t-16 9.5t-13 13t-15.5 14q-25 18 -56.5 29.5t-72.5 11.5z" />
    <glyph glyph-name="quotesinglbase" horiz-adv-x="291" 
d="M163 11q-1 -23 -12 -38t-32 -27q-18 -10 -30.5 -16t-12.5 -22q0 -8 7 -15t18 -7q20 0 41.5 11.5t39.5 31.5t29.5 46.5t11.5 57.5q0 45 -23.5 73t-57.5 28q-31 0 -50 -19.5t-19 -48.5q0 -27 16 -44t43 -17q13 0 31 6z" />
    <glyph glyph-name="quotesinglbase" unicode="&#x201a;" horiz-adv-x="291" 
d="M163 11q-1 -23 -12 -38t-32 -27q-18 -10 -30.5 -16t-12.5 -22q0 -8 7 -15t18 -7q20 0 41.5 11.5t39.5 31.5t29.5 46.5t11.5 57.5q0 45 -23.5 73t-57.5 28q-31 0 -50 -19.5t-19 -48.5q0 -27 16 -44t43 -17q13 0 31 6z" />
    <glyph glyph-name="quotedblbase" horiz-adv-x="484" 
d="M163 11q-1 -23 -12 -38t-32 -27q-18 -10 -30.5 -16t-12.5 -22q0 -8 7 -15t18 -7q20 0 41.5 11.5t39.5 31.5t29.5 46.5t11.5 57.5q0 45 -23.5 73t-57.5 28q-31 0 -50 -19.5t-19 -48.5q0 -27 16 -44t43 -17q13 0 31 6zM345 11q-1 -23 -11.5 -38t-31.5 -27q-18 -10 -31 -16
t-13 -22q0 -8 7.5 -15t16.5 -7q21 0 43 11.5t40 31.5t29.5 46.5t11.5 57.5q0 45 -23 73t-58 28q-31 0 -50 -19.5t-19 -48.5q0 -27 16 -44t42 -17q15 0 31 6z" />
    <glyph glyph-name="quotedblbase" unicode="&#x201e;" horiz-adv-x="484" 
d="M163 11q-1 -23 -12 -38t-32 -27q-18 -10 -30.5 -16t-12.5 -22q0 -8 7 -15t18 -7q20 0 41.5 11.5t39.5 31.5t29.5 46.5t11.5 57.5q0 45 -23.5 73t-57.5 28q-31 0 -50 -19.5t-19 -48.5q0 -27 16 -44t43 -17q13 0 31 6zM345 11q-1 -23 -11.5 -38t-31.5 -27q-18 -10 -31 -16
t-13 -22q0 -8 7.5 -15t16.5 -7q21 0 43 11.5t40 31.5t29.5 46.5t11.5 57.5q0 45 -23 73t-58 28q-31 0 -50 -19.5t-19 -48.5q0 -27 16 -44t42 -17q15 0 31 6z" />
    <glyph glyph-name="ellipsis" unicode="&#x85;" horiz-adv-x="853" 
d="M71 70q0 -32 22 -54t54 -22q31 0 53 22t22 54t-22 54t-53 22t-53.5 -22t-22.5 -54zM348 70q0 -32 22 -54t54 -22q31 0 53 22t22 54t-22 54t-53 22q-32 0 -54 -22t-22 -54zM626 70q0 -32 22 -54t54 -22q31 0 52.5 22t21.5 54t-21.5 54t-52.5 22q-32 0 -54 -22t-22 -54z
" />
    <glyph glyph-name="ellipsis" unicode="&#x2026;" horiz-adv-x="853" 
d="M71 70q0 -32 22 -54t54 -22q31 0 53 22t22 54t-22 54t-53 22t-53.5 -22t-22.5 -54zM348 70q0 -32 22 -54t54 -22q31 0 53 22t22 54t-22 54t-53 22q-32 0 -54 -22t-22 -54zM626 70q0 -32 22 -54t54 -22q31 0 52.5 22t21.5 54t-21.5 54t-52.5 22q-32 0 -54 -22t-22 -54z
" />
    <glyph glyph-name="dagger" horiz-adv-x="526" 
d="M394 428h-70v98q0 82 -57 82t-57 -82v-98h-69q-66 0 -66 -48t65 -48h70v-343q0 -84 57 -84t57 84v343h69q66 0 66 47q0 22 -16.5 35.5t-48.5 13.5z" />
    <glyph glyph-name="dagger" unicode="&#x2020;" horiz-adv-x="526" 
d="M394 428h-70v98q0 82 -57 82t-57 -82v-98h-69q-66 0 -66 -48t65 -48h70v-343q0 -84 57 -84t57 84v343h69q66 0 66 47q0 22 -16.5 35.5t-48.5 13.5z" />
    <glyph glyph-name="perthousand" horiz-adv-x="995" 
d="M73 467q0 -28 10 -52t27.5 -42t40.5 -28t49 -10q27 0 50 10t40 28t27 42t10 52q0 27 -10 51t-27 42t-40 28.5t-50 10.5q-26 0 -49 -10t-40.5 -28t-27.5 -42t-10 -52zM158 467q0 19 13 31t29 12q18 0 30.5 -12t12.5 -31t-12.5 -31.5t-30.5 -12.5q-16 0 -29 12.5t-13 31.5z
M383 125q0 -56 37.5 -94t90.5 -38q26 0 49.5 10t40.5 28t27 42t10 52q0 55 -37 93.5t-90 38.5q-26 0 -49.5 -10t-41 -28t-27.5 -42t-10 -52zM468 125q0 19 13 31t30 12t29.5 -12t12.5 -31t-12.5 -31.5t-29.5 -12.5t-30 12.5t-13 31.5zM668 125q0 -56 37.5 -94t90.5 -38
q26 0 49.5 10t41 28t27.5 42t10 52q0 27 -10 51t-27.5 42t-41 28.5t-49.5 10.5t-49.5 -10t-41 -28t-27.5 -42t-10 -52zM753 125q0 19 13 31t30 12t30 -12t13 -31t-13 -31.5t-30 -12.5t-30 12.5t-13 31.5zM263 33l274 479q15 28 15 44q0 21 -14 34t-34 13q-19 0 -31.5 -12.5
t-26.5 -34.5l-275 -479q-13 -22 -13 -43t14 -34.5t34 -13.5q31 0 57 47z" />
    <glyph glyph-name="perthousand" unicode="&#x2030;" horiz-adv-x="995" 
d="M73 467q0 -28 10 -52t27.5 -42t40.5 -28t49 -10q27 0 50 10t40 28t27 42t10 52q0 27 -10 51t-27 42t-40 28.5t-50 10.5q-26 0 -49 -10t-40.5 -28t-27.5 -42t-10 -52zM158 467q0 19 13 31t29 12q18 0 30.5 -12t12.5 -31t-12.5 -31.5t-30.5 -12.5q-16 0 -29 12.5t-13 31.5z
M383 125q0 -56 37.5 -94t90.5 -38q26 0 49.5 10t40.5 28t27 42t10 52q0 55 -37 93.5t-90 38.5q-26 0 -49.5 -10t-41 -28t-27.5 -42t-10 -52zM468 125q0 19 13 31t30 12t29.5 -12t12.5 -31t-12.5 -31.5t-29.5 -12.5t-30 12.5t-13 31.5zM668 125q0 -56 37.5 -94t90.5 -38
q26 0 49.5 10t41 28t27.5 42t10 52q0 27 -10 51t-27.5 42t-41 28.5t-49.5 10.5t-49.5 -10t-41 -28t-27.5 -42t-10 -52zM753 125q0 19 13 31t30 12t30 -12t13 -31t-13 -31.5t-30 -12.5t-30 12.5t-13 31.5zM263 33l274 479q15 28 15 44q0 21 -14 34t-34 13q-19 0 -31.5 -12.5
t-26.5 -34.5l-275 -479q-13 -22 -13 -43t14 -34.5t34 -13.5q31 0 57 47z" />
    <glyph glyph-name="quoteleft" horiz-adv-x="295" 
d="M134 484q1 43 42 66q18 10 31.5 16t13.5 21q0 9 -8 16t-18 7q-20 0 -41.5 -11.5t-39.5 -31.5t-29.5 -48t-11.5 -61q0 -41 22.5 -69t57.5 -28q31 0 51 19.5t20 47.5t-17 45.5t-43 17.5q-8 0 -15 -2t-15 -5z" />
    <glyph glyph-name="quoteleft" unicode="&#x2018;" horiz-adv-x="295" 
d="M134 484q1 43 42 66q18 10 31.5 16t13.5 21q0 9 -8 16t-18 7q-20 0 -41.5 -11.5t-39.5 -31.5t-29.5 -48t-11.5 -61q0 -41 22.5 -69t57.5 -28q31 0 51 19.5t20 47.5t-17 45.5t-43 17.5q-8 0 -15 -2t-15 -5z" />
    <glyph glyph-name="quoteright" horiz-adv-x="298" 
d="M161 485q-1 -23 -11.5 -38t-31.5 -27q-17 -10 -30.5 -16.5t-13.5 -21.5q0 -9 7.5 -15.5t17.5 -6.5q21 0 43 11.5t40 31.5t29.5 47t11.5 57q0 45 -23.5 73t-58.5 28q-31 0 -50.5 -19.5t-19.5 -49.5q0 -27 17 -43.5t43 -16.5q7 0 14.5 1t15.5 5z" />
    <glyph glyph-name="quoteright" unicode="&#x2019;" horiz-adv-x="298" 
d="M161 485q-1 -23 -11.5 -38t-31.5 -27q-17 -10 -30.5 -16.5t-13.5 -21.5q0 -9 7.5 -15.5t17.5 -6.5q21 0 43 11.5t40 31.5t29.5 47t11.5 57q0 45 -23.5 73t-58.5 28q-31 0 -50.5 -19.5t-19.5 -49.5q0 -27 17 -43.5t43 -16.5q7 0 14.5 1t15.5 5z" />
    <glyph glyph-name="quotedblleft" horiz-adv-x="484" 
d="M310 484q0 42 42 66q19 10 31 16t12 21q0 9 -7 16t-17 7q-20 0 -41.5 -11.5t-39.5 -31.5t-29.5 -48t-11.5 -61q0 -41 23 -69t57 -28q31 0 50.5 19.5t19.5 47.5t-17 45.5t-42 17.5q-13 0 -30 -7zM125 484q1 43 43 66q18 10 31 16t13 21q0 9 -7.5 16t-17.5 7
q-20 0 -42 -11.5t-40 -31.5t-29.5 -48t-11.5 -61q0 -41 23.5 -69t57.5 -28q31 0 50.5 19.5t19.5 47.5t-17 45.5t-42 17.5q-14 0 -31 -7z" />
    <glyph glyph-name="quotedblleft" unicode="&#x201c;" horiz-adv-x="484" 
d="M310 484q0 42 42 66q19 10 31 16t12 21q0 9 -7 16t-17 7q-20 0 -41.5 -11.5t-39.5 -31.5t-29.5 -48t-11.5 -61q0 -41 23 -69t57 -28q31 0 50.5 19.5t19.5 47.5t-17 45.5t-42 17.5q-13 0 -30 -7zM125 484q1 43 43 66q18 10 31 16t13 21q0 9 -7.5 16t-17.5 7
q-20 0 -42 -11.5t-40 -31.5t-29.5 -48t-11.5 -61q0 -41 23.5 -69t57.5 -28q31 0 50.5 19.5t19.5 47.5t-17 45.5t-42 17.5q-14 0 -31 -7z" />
    <glyph glyph-name="quotedblright" horiz-adv-x="482" 
d="M161 485q-1 -23 -11.5 -38t-31.5 -27q-17 -10 -30.5 -16.5t-13.5 -21.5q0 -9 7.5 -15.5t17.5 -6.5q21 0 43 11.5t40 31.5t29.5 47t11.5 57q0 45 -23.5 73t-58.5 28q-31 0 -50.5 -19.5t-19.5 -49.5q0 -27 17 -43.5t43 -16.5q7 0 14.5 1t15.5 5zM346 485q-1 -23 -12 -38
t-32 -27q-18 -10 -30.5 -16.5t-12.5 -21.5q0 -9 7.5 -15.5t17.5 -6.5q20 0 41.5 11.5t39.5 31.5t29.5 47t11.5 57q0 45 -23 73t-58 28q-30 0 -49.5 -19.5t-19.5 -49.5q0 -27 17 -43.5t43 -16.5q7 0 14 1t16 5z" />
    <glyph glyph-name="quotedblright" unicode="&#x201d;" horiz-adv-x="482" 
d="M161 485q-1 -23 -11.5 -38t-31.5 -27q-17 -10 -30.5 -16.5t-13.5 -21.5q0 -9 7.5 -15.5t17.5 -6.5q21 0 43 11.5t40 31.5t29.5 47t11.5 57q0 45 -23.5 73t-58.5 28q-31 0 -50.5 -19.5t-19.5 -49.5q0 -27 17 -43.5t43 -16.5q7 0 14.5 1t15.5 5zM346 485q-1 -23 -12 -38
t-32 -27q-18 -10 -30.5 -16.5t-12.5 -21.5q0 -9 7.5 -15.5t17.5 -6.5q20 0 41.5 11.5t39.5 31.5t29.5 47t11.5 57q0 45 -23 73t-58 28q-30 0 -49.5 -19.5t-19.5 -49.5q0 -27 17 -43.5t43 -16.5q7 0 14 1t16 5z" />
    <glyph glyph-name="bullet" horiz-adv-x="387" 
d="M69 309q0 -25 9.5 -46.5t25.5 -38t38 -26t47 -9.5t46.5 9.5t38 26t26 38.5t9.5 46q0 25 -9.5 47t-26 38t-38 25.5t-46.5 9.5t-46.5 -9.5t-38 -25.5t-26 -38t-9.5 -47z" />
    <glyph glyph-name="bullet" unicode="&#x2022;" horiz-adv-x="387" 
d="M69 309q0 -25 9.5 -46.5t25.5 -38t38 -26t47 -9.5t46.5 9.5t38 26t26 38.5t9.5 46q0 25 -9.5 47t-26 38t-38 25.5t-46.5 9.5t-46.5 -9.5t-38 -25.5t-26 -38t-9.5 -47z" />
    <glyph glyph-name="endash" 
d="M452 342h-328q-49 0 -49 -43q0 -19 13.5 -30.5t35.5 -11.5h328q49 0 49 42q0 19 -13.5 31t-35.5 12z" />
    <glyph glyph-name="endash" unicode="&#x2013;" 
d="M452 342h-328q-49 0 -49 -43q0 -19 13.5 -30.5t35.5 -11.5h328q49 0 49 42q0 19 -13.5 31t-35.5 12z" />
    <glyph glyph-name="emdash" horiz-adv-x="982" 
d="M855 342h-734q-29 0 -44 -12t-15 -31q0 -18 15.5 -30t43.5 -12h733q59 0 59 42q0 19 -15 31t-43 12z" />
    <glyph glyph-name="emdash" unicode="&#x2014;" horiz-adv-x="982" 
d="M855 342h-734q-29 0 -44 -12t-15 -31q0 -18 15.5 -30t43.5 -12h733q59 0 59 42q0 19 -15 31t-43 12z" />
    <glyph glyph-name="trademark" horiz-adv-x="620" 
d="M233 594h-135q-31 0 -31 -24q0 -22 31 -22h37v-145q0 -16 8.5 -23.5t20.5 -7.5q14 0 23 7.5t9 23.5v145h37q31 0 31 22q0 24 -31 24zM449 403l50 118h1v-118q0 -16 7 -23.5t18 -7.5q29 0 29 31v153q0 16 -10.5 27t-29.5 11q-20 0 -32.5 -8t-20.5 -30l-36 -97l-37 95
q-8 22 -20.5 31t-34.5 9q-18 0 -28.5 -11t-10.5 -27v-153q0 -31 27 -31q12 0 20 7.5t8 23.5v118h1l50 -118q9 -19 25 -19t24 19z" />
    <glyph glyph-name="trademark" unicode="&#x2122;" horiz-adv-x="620" 
d="M233 594h-135q-31 0 -31 -24q0 -22 31 -22h37v-145q0 -16 8.5 -23.5t20.5 -7.5q14 0 23 7.5t9 23.5v145h37q31 0 31 22q0 24 -31 24zM449 403l50 118h1v-118q0 -16 7 -23.5t18 -7.5q29 0 29 31v153q0 16 -10.5 27t-29.5 11q-20 0 -32.5 -8t-20.5 -30l-36 -97l-37 95
q-8 22 -20.5 31t-34.5 9q-18 0 -28.5 -11t-10.5 -27v-153q0 -31 27 -31q12 0 20 7.5t8 23.5v118h1l50 -118q9 -19 25 -19t24 19z" />
    <glyph glyph-name="currency" unicode="&#xa4;" horiz-adv-x="579" 
d="M180 501l-83 83l-42 -44l82 -82q-31 -45 -31 -98q0 -56 31 -99l-82 -83l42 -43l83 83q42 -32 100 -32q56 0 99 32l83 -83l42 43l-82 83q31 44 31 99q0 53 -31 98l82 82l-42 44l-83 -83q-44 32 -100 32q-30 0 -54 -8t-45 -24zM280 471q46 0 79 -33t33 -78q0 -46 -33 -79
t-79 -33q-47 0 -79.5 33t-32.5 79q0 22 9 42.5t24 35.5t35.5 24t43.5 9z" />
    <glyph glyph-name="brokenbar" unicode="&#xa6;" horiz-adv-x="231" 
d="M153 653h-84v-308h84v308zM153 236h-84v-308h84v308z" />
    <glyph glyph-name="section" unicode="&#xa7;" horiz-adv-x="549" 
d="M145 428q-36 -20 -56 -54t-20 -72q0 -31 11 -55t31.5 -43.5t50 -37t66.5 -35.5q56 -27 85 -42t29 -39q0 -19 -15 -30.5t-43 -11.5q-51 0 -76 43q-11 19 -21.5 30.5t-30.5 11.5q-22 0 -38 -16t-16 -41q0 -24 13 -47t37 -40.5t57.5 -28t74.5 -10.5q81 0 128.5 41.5
t47.5 104.5q0 55 -40 96q36 21 55 54.5t19 71.5q0 63 -42 98.5t-116 70.5q-56 29 -85.5 44t-29.5 40q0 17 15.5 29t40.5 12q49 0 72 -44q12 -20 22.5 -30.5t29.5 -10.5q22 0 38 15.5t16 40.5q0 49 -48 87.5t-133 38.5q-78 0 -124 -41.5t-46 -106.5q0 -53 41 -93zM345 207
q-79 36 -120.5 59t-41.5 51q0 35 36 57q79 -38 120.5 -60t41.5 -51q0 -37 -36 -56z" />
    <glyph glyph-name="dieresis" unicode="&#xa8;" horiz-adv-x="487" 
d="M311 591h-151q-57 0 -75 -22.5t-18 -71.5v-412q0 -48 18.5 -66.5t72.5 -18.5h157q96 0 96 62q0 63 -96 63h-114v111h95q95 0 95 62t-95 62h-95v106h110q96 0 96 62q0 63 -96 63zM351 686q0 -26 -14 -40t-38 -14q-52 0 -52 54q0 24 13.5 39t38.5 15q24 0 38 -14.5
t14 -39.5zM222 686q0 -26 -14 -40t-38 -14t-38 14t-14 40q0 24 14 39t38 15t38 -14.5t14 -39.5z" />
    <glyph glyph-name="dieresis" unicode="&#x401;" horiz-adv-x="487" 
d="M311 591h-151q-57 0 -75 -22.5t-18 -71.5v-412q0 -48 18.5 -66.5t72.5 -18.5h157q96 0 96 62q0 63 -96 63h-114v111h95q95 0 95 62t-95 62h-95v106h110q96 0 96 62q0 63 -96 63zM351 686q0 -26 -14 -40t-38 -14q-52 0 -52 54q0 24 13.5 39t38.5 15q24 0 38 -14.5
t14 -39.5zM222 686q0 -26 -14 -40t-38 -14t-38 14t-14 40q0 24 14 39t38 15t38 -14.5t14 -39.5z" />
    <glyph glyph-name="copyright" unicode="&#xa9;" horiz-adv-x="653" 
d="M331 600q126 0 215 -89q43 -42 65.5 -97t22.5 -116q0 -125 -88 -211q-93 -91 -215 -91t-212 90q-44 43 -66.5 97.5t-22.5 114.5q0 59 22.5 114.5t66.5 99.5q86 88 212 88zM332 551q-107 0 -179 -74q-73 -76 -73 -178q0 -105 73 -178q75 -75 179 -75q103 0 179 76
q73 71 73 177q0 104 -73 177q-75 75 -179 75zM172 298q0 38 13 70t36.5 55t55.5 36t71 13q49 0 79 -17.5t30 -45.5q0 -18 -11 -29.5t-28 -11.5q-14 0 -31.5 7t-38.5 7q-31 0 -53 -22.5t-22 -59.5q0 -39 22.5 -61.5t56.5 -22.5q22 0 38 7.5t29 7.5q17 0 27.5 -12.5
t10.5 -29.5q0 -25 -32 -45.5t-84 -20.5q-36 0 -66.5 12.5t-53.5 35.5t-36 55.5t-13 71.5z" />
    <glyph glyph-name="guillemotleft" unicode="&#xab;" horiz-adv-x="520" 
d="M217 246l-72 53l72 53q12 9 20 18t8 29q0 24 -9.5 36.5t-23.5 12.5q-17 0 -36 -11.5t-44 -30.5q-36 -26 -55 -47t-19 -60q0 -40 20 -60.5t54 -45.5q25 -19 44 -30.5t35 -11.5q15 0 24.5 12.5t9.5 35.5q0 21 -8 29.5t-20 17.5zM410 246l-71 53l71 53q11 9 19 18t8 29
q0 49 -33 49q-16 0 -34.5 -11.5t-44.5 -30.5q-35 -26 -54.5 -47t-19.5 -60q0 -40 20 -60.5t54 -45.5q26 -19 44 -30.5t34 -11.5q15 0 24.5 12.5t9.5 35.5q0 21 -7.5 29.5t-19.5 17.5z" />
    <glyph glyph-name="logicalnot" unicode="&#xac;" 
d="M528 356v-171q0 -21 -11.5 -31.5t-30.5 -10.5q-18 0 -29.5 10.5t-11.5 31.5v86h-368q-23 0 -36 11.5t-13 30.5q0 43 49 43h451z" />
    <glyph glyph-name="registered" unicode="&#xae;" horiz-adv-x="651" 
d="M331 600q62 0 118 -23t99 -68q42 -41 64 -96t22 -115q0 -62 -23 -117.5t-66 -96.5q-44 -43 -100 -65.5t-114 -22.5q-60 0 -115.5 23.5t-99.5 67.5q-42 43 -64 98t-22 113q0 82 44 157q41 69 108 107t149 38zM332 551q-103 0 -175 -72q-38 -37 -57.5 -84t-19.5 -96
q0 -50 18.5 -96t53.5 -81q36 -37 82.5 -57t96.5 -20q101 0 179 75q35 34 54.5 79t19.5 94q0 108 -72 182q-74 76 -180 76zM337 471q144 0 144 -96q0 -33 -19.5 -56.5t-53.5 -32.5l57 -87q16 -24 16 -52q0 -8 -13.5 -16t-26.5 -8t-21.5 5.5t-22.5 28.5l-69 117h-40v-99
q0 -32 -11.5 -42t-30.5 -10q-16 0 -28 10.5t-12 41.5v249q0 29 12 38t28 9h91zM288 322h40q68 0 68 48q0 50 -72 50h-36v-98z" />
    <glyph glyph-name="degree" unicode="&#xb0;" horiz-adv-x="382" 
d="M194 619q-51 0 -87 -36.5t-36 -87.5q0 -52 35.5 -88t86.5 -36q53 0 88.5 36.5t35.5 87.5t-35.5 87.5t-87.5 36.5zM194 566q30 0 50.5 -21t20.5 -50t-20.5 -50t-50.5 -21t-50.5 21t-20.5 50t21 50t50 21z" />
    <glyph glyph-name="plusminus" unicode="&#xb1;" horiz-adv-x="549" 
d="M86 284q-32 0 -45 8.5t-13 30.5q0 23 13 32.5t45 9.5h145v89q0 21 11 32t29 11q42 0 42 -43v-89h144q32 0 45.5 -9.5t13.5 -32.5q0 -22 -13.5 -30.5t-45.5 -8.5h-144v-89q0 -43 -42 -43q-18 0 -29 11t-11 32v89h-145zM457 81q32 0 45.5 -9.5t13.5 -32.5
q0 -22 -13.5 -30.5t-45.5 -8.5h-371q-32 0 -45 8.5t-13 30.5q0 23 13 32.5t45 9.5h371z" />
    <glyph glyph-name="mu" unicode="&#xb5;" horiz-adv-x="560" 
d="M473 83q35 0 45 -11t10 -27q0 -17 -11 -28t-27.5 -18t-36 -9.5t-35.5 -2.5q-35 0 -54.5 11t-28.5 33h-3q-30 -44 -71 -44q-48 0 -90 49v-150q0 -36 -13.5 -50t-41.5 -14t-44.5 14t-16.5 50v496q0 34 16.5 47.5t44.5 13.5t41.5 -13.5t13.5 -47.5v-115q0 -54 6 -89.5
t18 -56.5t30.5 -29.5t44.5 -8.5q31 0 48 36.5t17 115.5v147q0 34 15.5 47.5t44.5 13.5q28 0 42.5 -13.5t14.5 -47.5v-299h21z" />
    <glyph glyph-name="paragraph" unicode="&#xb6;" horiz-adv-x="480" 
d="M410 600q23 0 33 -7.5t10 -19.5q0 -11 -10 -18t-33 -7h-46v-500q0 -48 -33 -48q-17 0 -22.5 11t-5.5 37v500h-65v-500q0 -26 -7 -37t-24 -11q-31 0 -31 48v270q-69 3 -108.5 42t-39.5 99q0 62 42.5 101.5t116.5 39.5h223z" />
    <glyph glyph-name="periodcentered" unicode="&#xb7;" horiz-adv-x="285" 
d="M69 295q0 -31 21.5 -53t53.5 -22t54.5 22t22.5 53t-22.5 53.5t-54.5 22.5q-31 0 -53 -22.5t-22 -53.5z" />
    <glyph glyph-name="periodcentered" unicode="&#x2219;" horiz-adv-x="285" 
d="M69 295q0 -31 21.5 -53t53.5 -22t54.5 22t22.5 53t-22.5 53.5t-54.5 22.5q-31 0 -53 -22.5t-22 -53.5z" />
    <glyph glyph-name="cedilla" unicode="&#xb8;" horiz-adv-x="487" 
d="M311 591h-151q-57 0 -75 -22.5t-18 -71.5v-412q0 -48 18.5 -66.5t72.5 -18.5h157q96 0 96 62q0 63 -96 63h-114v111h95q95 0 95 62t-95 62h-95v106h110q96 0 96 62q0 63 -96 63zM351 686q0 -26 -14 -40t-38 -14q-52 0 -52 54q0 24 13.5 39t38.5 15q24 0 38 -14.5
t14 -39.5zM222 686q0 -26 -14 -40t-38 -14t-38 14t-14 40q0 24 14 39t38 15t38 -14.5t14 -39.5z" />
    <glyph glyph-name="cedilla" unicode="&#x451;" horiz-adv-x="487" 
d="M311 591h-151q-57 0 -75 -22.5t-18 -71.5v-412q0 -48 18.5 -66.5t72.5 -18.5h157q96 0 96 62q0 63 -96 63h-114v111h95q95 0 95 62t-95 62h-95v106h110q96 0 96 62q0 63 -96 63zM351 686q0 -26 -14 -40t-38 -14q-52 0 -52 54q0 24 13.5 39t38.5 15q24 0 38 -14.5
t14 -39.5zM222 686q0 -26 -14 -40t-38 -14t-38 14t-14 40q0 24 14 39t38 15t38 -14.5t14 -39.5z" />
    <glyph glyph-name="uni00B9" unicode="&#xb9;" horiz-adv-x="1031" 
d="M204 88v272l243 -322q37 -49 77 -49q33 0 47.5 21.5t14.5 62.5v430q0 96 -67 96t-67 -96v-277l-249 329q-17 21 -33 32.5t-38 11.5q-63 0 -63 -91v-420q0 -95 67 -95q68 0 68 95zM650 352q0 -72 39.5 -117t112.5 -45t112.5 45t39.5 117q0 71 -39.5 117t-112.5 46
t-112.5 -46t-39.5 -117zM750 353q0 36 12.5 56t39.5 20t39 -20.5t12 -55.5q0 -36 -11.5 -56.5t-39.5 -20.5t-40 20.5t-12 56.5zM715 32h173q32 0 49 9t17 38q0 25 -17 35.5t-48 10.5h-173q-32 0 -49 -9.5t-17 -36.5t17 -37t48 -10z" />
    <glyph glyph-name="uni00B9" unicode="&#x2116;" horiz-adv-x="1031" 
d="M204 88v272l243 -322q37 -49 77 -49q33 0 47.5 21.5t14.5 62.5v430q0 96 -67 96t-67 -96v-277l-249 329q-17 21 -33 32.5t-38 11.5q-63 0 -63 -91v-420q0 -95 67 -95q68 0 68 95zM650 352q0 -72 39.5 -117t112.5 -45t112.5 45t39.5 117q0 71 -39.5 117t-112.5 46
t-112.5 -46t-39.5 -117zM750 353q0 36 12.5 56t39.5 20t39 -20.5t12 -55.5q0 -36 -11.5 -56.5t-39.5 -20.5t-40 20.5t-12 56.5zM715 32h173q32 0 49 9t17 38q0 25 -17 35.5t-48 10.5h-173q-32 0 -49 -9.5t-17 -36.5t17 -37t48 -10z" />
    <glyph glyph-name="guillemotright" unicode="&#xbb;" horiz-adv-x="511" 
d="M97 352l71 -53l-71 -54q-13 -8 -20.5 -17t-7.5 -30q0 -48 33 -48q16 0 35 11t44 30q35 26 54.5 47.5t19.5 60.5t-19.5 60t-54.5 46q-25 19 -43.5 30.5t-34.5 11.5q-34 0 -34 -48q0 -21 7.5 -29.5t20.5 -17.5zM289 352l71 -53l-71 -54q-12 -8 -19.5 -17t-7.5 -30
q0 -48 32 -48q16 0 35 11t44 30q35 26 55 47.5t20 60.5t-20 60t-55 46q-25 19 -43 30.5t-34 11.5q-34 0 -34 -48q0 -21 7 -29.5t20 -17.5z" />
    <glyph glyph-name="Agrave" unicode="&#xc0;" horiz-adv-x="633" 
d="M325 599q-71 0 -103 -87l-154 -417q-6 -18 -6 -39q0 -28 18 -45.5t46 -17.5q46 0 65 59l24 74h209l22 -69q20 -64 71 -64q28 0 47.5 16.5t19.5 44.5q0 9 -2.5 19t-7.5 23l-149 426q-28 77 -100 77zM254 245l67 208h2l65 -208h-134z" />
    <glyph glyph-name="Agrave" unicode="&#x410;" horiz-adv-x="633" 
d="M325 599q-71 0 -103 -87l-154 -417q-6 -18 -6 -39q0 -28 18 -45.5t46 -17.5q46 0 65 59l24 74h209l22 -69q20 -64 71 -64q28 0 47.5 16.5t19.5 44.5q0 9 -2.5 19t-7.5 23l-149 426q-28 77 -100 77zM254 245l67 208h2l65 -208h-134z" />
    <glyph glyph-name="Aacute" unicode="&#xc1;" horiz-adv-x="547" 
d="M203 124v155h58q93 0 93 -78q0 -77 -93 -77h-58zM294 402h-91v64h169q97 0 97 62q0 63 -97 63h-210q-57 0 -75 -22.5t-18 -71.5v-402q0 -49 18 -72t75 -23h121q102 0 159.5 55t57.5 146q0 93 -54 147t-152 54z" />
    <glyph glyph-name="Aacute" unicode="&#x411;" horiz-adv-x="547" 
d="M203 124v155h58q93 0 93 -78q0 -77 -93 -77h-58zM294 402h-91v64h169q97 0 97 62q0 63 -97 63h-210q-57 0 -75 -22.5t-18 -71.5v-402q0 -49 18 -72t75 -23h121q102 0 159.5 55t57.5 146q0 93 -54 147t-152 54z" />
    <glyph glyph-name="Acircumflex" unicode="&#xc2;" 
d="M162 0h133q103 0 157 48.5t54 129.5q0 55 -23 85.5t-75 47.5v2q42 21 56 54t14 77q0 67 -56.5 107t-147.5 40h-110q-57 0 -75 -22.5t-18 -71.5v-412q0 -48 18.5 -66.5t72.5 -18.5zM205 116v139h65q54 0 74 -16.5t20 -56.5q0 -32 -20 -49t-72 -17h-67zM205 360v116h58
q79 0 79 -57q0 -32 -17 -45.5t-62 -13.5h-58z" />
    <glyph glyph-name="Acircumflex" unicode="&#x412;" 
d="M162 0h133q103 0 157 48.5t54 129.5q0 55 -23 85.5t-75 47.5v2q42 21 56 54t14 77q0 67 -56.5 107t-147.5 40h-110q-57 0 -75 -22.5t-18 -71.5v-412q0 -48 18.5 -66.5t72.5 -18.5zM205 116v139h65q54 0 74 -16.5t20 -56.5q0 -32 -20 -49t-72 -17h-67zM205 360v116h58
q79 0 79 -57q0 -32 -17 -45.5t-62 -13.5h-58z" />
    <glyph glyph-name="Atilde" unicode="&#xc3;" horiz-adv-x="469" 
d="M67 497v-409q0 -95 67 -95t67 95v378h110q96 0 96 62q0 63 -96 63h-151q-57 0 -75 -22.5t-18 -71.5z" />
    <glyph glyph-name="Atilde" unicode="&#x413;" horiz-adv-x="469" 
d="M67 497v-409q0 -95 67 -95t67 95v378h110q96 0 96 62q0 63 -96 63h-151q-57 0 -75 -22.5t-18 -71.5z" />
    <glyph glyph-name="Adieresis" unicode="&#xc4;" horiz-adv-x="705" 
d="M578 113l-143 411q-13 37 -38.5 56t-58.5 19q-69 0 -100 -84l-148 -402h-17q-28 0 -40.5 -13.5t-12.5 -44.5q0 -25 12.5 -40t40.5 -15h525q28 0 43.5 15t15.5 40q0 26 -15.5 42t-43.5 16h-20zM334 457h2l107 -344h-220z" />
    <glyph glyph-name="Adieresis" unicode="&#x414;" horiz-adv-x="705" 
d="M578 113l-143 411q-13 37 -38.5 56t-58.5 19q-69 0 -100 -84l-148 -402h-17q-28 0 -40.5 -13.5t-12.5 -44.5q0 -25 12.5 -40t40.5 -15h525q28 0 43.5 15t15.5 40q0 26 -15.5 42t-43.5 16h-20zM334 457h2l107 -344h-220z" />
    <glyph glyph-name="Aring" unicode="&#xc5;" horiz-adv-x="494" 
d="M322 591h-151q-57 0 -75 -22.5t-18 -71.5v-412q0 -48 18.5 -66.5t72.5 -18.5h157q96 0 96 62q0 63 -96 63h-114v111h95q95 0 95 62t-95 62h-95v106h110q96 0 96 62q0 63 -96 63z" />
    <glyph glyph-name="Aring" unicode="&#x415;" horiz-adv-x="494" 
d="M322 591h-151q-57 0 -75 -22.5t-18 -71.5v-412q0 -48 18.5 -66.5t72.5 -18.5h157q96 0 96 62q0 63 -96 63h-114v111h95q95 0 95 62t-95 62h-95v106h110q96 0 96 62q0 63 -96 63z" />
    <glyph glyph-name="AE" unicode="&#xc6;" horiz-adv-x="891" 
d="M390 241v-153q0 -48 14 -71.5t48 -23.5t48.5 23.5t14.5 71.5v153l12 9l174 -210q18 -22 34.5 -34.5t38.5 -12.5t42 18t20 44q0 27 -34 67l-177 207l132 131q35 34 44.5 48t9.5 27q0 25 -20.5 44.5t-45.5 19.5q-18 0 -36 -14t-39 -34l-155 -160v112q0 48 -14.5 72
t-48.5 24t-48 -24t-14 -72v-112l-156 160q-20 20 -38 34t-35 14q-25 0 -46 -19.5t-21 -44.5q0 -13 9.5 -27t44.5 -48l132 -131l-177 -207q-34 -38 -34 -67q0 -26 19.5 -44t42.5 -18t39 12.5t33 34.5l175 210z" />
    <glyph glyph-name="AE" unicode="&#x416;" horiz-adv-x="891" 
d="M390 241v-153q0 -48 14 -71.5t48 -23.5t48.5 23.5t14.5 71.5v153l12 9l174 -210q18 -22 34.5 -34.5t38.5 -12.5t42 18t20 44q0 27 -34 67l-177 207l132 131q35 34 44.5 48t9.5 27q0 25 -20.5 44.5t-45.5 19.5q-18 0 -36 -14t-39 -34l-155 -160v112q0 48 -14.5 72
t-48.5 24t-48 -24t-14 -72v-112l-156 160q-20 20 -38 34t-35 14q-25 0 -46 -19.5t-21 -44.5q0 -13 9.5 -27t44.5 -48l132 -131l-177 -207q-34 -38 -34 -67q0 -26 19.5 -44t42.5 -18t39 12.5t33 34.5l175 210z" />
    <glyph glyph-name="Ccedilla" unicode="&#xc7;" horiz-adv-x="566" 
d="M400 313v3q37 16 58.5 43t21.5 77q0 79 -52.5 121t-157.5 42q-37 0 -70.5 -6t-59 -17.5t-40.5 -27t-15 -33.5q0 -31 15 -41t41 -10q17 0 31 3.5t28 8t29.5 8t36.5 3.5q81 0 81 -64q0 -29 -22.5 -42.5t-53.5 -13.5h-36q-38 0 -61.5 -15.5t-23.5 -41.5q0 -28 23.5 -42
t61.5 -14h36q40 0 62 -21.5t22 -50.5q0 -32 -22.5 -50.5t-67.5 -18.5q-38 0 -56.5 5t-31 10.5t-24 10.5t-35.5 5t-40 -12t-16 -39q0 -26 15.5 -45t42.5 -31t63.5 -18t78.5 -6q66 0 110.5 13.5t72 38.5t39 59t11.5 74t-23 78t-72 57z" />
    <glyph glyph-name="Ccedilla" unicode="&#x417;" horiz-adv-x="566" 
d="M400 313v3q37 16 58.5 43t21.5 77q0 79 -52.5 121t-157.5 42q-37 0 -70.5 -6t-59 -17.5t-40.5 -27t-15 -33.5q0 -31 15 -41t41 -10q17 0 31 3.5t28 8t29.5 8t36.5 3.5q81 0 81 -64q0 -29 -22.5 -42.5t-53.5 -13.5h-36q-38 0 -61.5 -15.5t-23.5 -41.5q0 -28 23.5 -42
t61.5 -14h36q40 0 62 -21.5t22 -50.5q0 -32 -22.5 -50.5t-67.5 -18.5q-38 0 -56.5 5t-31 10.5t-24 10.5t-35.5 5t-40 -12t-16 -39q0 -26 15.5 -45t42.5 -31t63.5 -18t78.5 -6q66 0 110.5 13.5t72 38.5t39 59t11.5 74t-23 78t-72 57z" />
    <glyph glyph-name="Egrave" unicode="&#xc8;" horiz-adv-x="654" 
d="M449 360v-272q0 -95 67 -95t67 95v420q0 44 -14.5 67.5t-47.5 23.5q-23 0 -39 -11.5t-32 -32.5l-249 -329v277q0 96 -67 96t-67 -96v-430q0 -41 14 -60.5t46 -19.5q22 0 40.5 9.5t37.5 35.5z" />
    <glyph glyph-name="Egrave" unicode="&#x418;" horiz-adv-x="654" 
d="M449 360v-272q0 -95 67 -95t67 95v420q0 44 -14.5 67.5t-47.5 23.5q-23 0 -39 -11.5t-32 -32.5l-249 -329v277q0 96 -67 96t-67 -96v-430q0 -41 14 -60.5t46 -19.5q22 0 40.5 9.5t37.5 35.5z" />
    <glyph glyph-name="Eacute" unicode="&#xc9;" horiz-adv-x="653" 
d="M331 598q-61 0 -99 29.5t-38 66.5q0 21 11.5 33.5t31.5 12.5t27.5 -8.5t14 -18.5t17 -18.5t35.5 -8.5t35.5 8.5t16.5 18.5t13.5 18.5t27.5 8.5q21 0 32.5 -12.5t11.5 -33.5q0 -38 -38 -67t-99 -29zM455 360v-272q0 -95 67 -95t67 95v420q0 44 -14.5 67.5t-47.5 23.5
q-23 0 -39 -11.5t-32 -32.5l-249 -329v277q0 96 -67 96t-67 -96v-430q0 -41 14 -60.5t46 -19.5q22 0 40.5 9.5t37.5 35.5z" />
    <glyph glyph-name="Eacute" unicode="&#x419;" horiz-adv-x="653" 
d="M331 598q-61 0 -99 29.5t-38 66.5q0 21 11.5 33.5t31.5 12.5t27.5 -8.5t14 -18.5t17 -18.5t35.5 -8.5t35.5 8.5t16.5 18.5t13.5 18.5t27.5 8.5q21 0 32.5 -12.5t11.5 -33.5q0 -38 -38 -67t-99 -29zM455 360v-272q0 -95 67 -95t67 95v420q0 44 -14.5 67.5t-47.5 23.5
q-23 0 -39 -11.5t-32 -32.5l-249 -329v277q0 96 -67 96t-67 -96v-430q0 -41 14 -60.5t46 -19.5q22 0 40.5 9.5t37.5 35.5z" />
    <glyph glyph-name="Ecircumflex" unicode="&#xca;" horiz-adv-x="605" 
d="M69 503v-415q0 -95 67 -95t67 95v140l24 19l178 -207q18 -22 34.5 -34.5t38.5 -12.5t42 18t20 44q0 27 -34 67l-181 203l137 135q34 34 43.5 48t9.5 27q0 25 -20.5 44.5t-45.5 19.5q-18 0 -36 -14t-38 -34l-172 -177v129q0 96 -67 96t-67 -96z" />
    <glyph glyph-name="Ecircumflex" unicode="&#x41a;" horiz-adv-x="605" 
d="M69 503v-415q0 -95 67 -95t67 95v140l24 19l178 -207q18 -22 34.5 -34.5t38.5 -12.5t42 18t20 44q0 27 -34 67l-181 203l137 135q34 34 43.5 48t9.5 27q0 25 -20.5 44.5t-45.5 19.5q-18 0 -36 -14t-38 -34l-172 -177v129q0 96 -67 96t-67 -96z" />
    <glyph glyph-name="Edieresis" unicode="&#xcb;" horiz-adv-x="625" 
d="M187 52l130 401h2l123 -396q20 -64 71 -64q28 0 47.5 16.5t19.5 44.5q0 9 -2.5 19t-7.5 23l-149 426q-28 77 -100 77q-71 0 -103 -87l-154 -417q-6 -18 -6 -39q0 -28 18 -45.5t46 -17.5q46 0 65 59z" />
    <glyph glyph-name="Edieresis" unicode="&#x41b;" horiz-adv-x="625" 
d="M187 52l130 401h2l123 -396q20 -64 71 -64q28 0 47.5 16.5t19.5 44.5q0 9 -2.5 19t-7.5 23l-149 426q-28 77 -100 77q-71 0 -103 -87l-154 -417q-6 -18 -6 -39q0 -28 18 -45.5t46 -17.5q46 0 65 59z" />
    <glyph glyph-name="Igrave" unicode="&#xcc;" horiz-adv-x="868" 
d="M417 187l78 332q8 35 33.5 57.5t62.5 22.5q44 0 72 -28t34 -65l65 -403q2 -17 3 -27.5t1 -17.5q0 -35 -15.5 -50t-44.5 -15q-31 0 -47 18.5t-23 67.5l-51 324h-2l-76 -299q-15 -59 -37.5 -77t-53.5 -18q-32 0 -54.5 18t-37.5 77l-77 299h-1l-51 -324q-8 -49 -23 -67.5
t-47 -18.5q-28 0 -44.5 15t-16.5 50q0 12 6 45l65 403q5 37 33 65t71 28q38 0 63.5 -22.5t33.5 -57.5l78 -332h3z" />
    <glyph glyph-name="Igrave" unicode="&#x41c;" horiz-adv-x="868" 
d="M417 187l78 332q8 35 33.5 57.5t62.5 22.5q44 0 72 -28t34 -65l65 -403q2 -17 3 -27.5t1 -17.5q0 -35 -15.5 -50t-44.5 -15q-31 0 -47 18.5t-23 67.5l-51 324h-2l-76 -299q-15 -59 -37.5 -77t-53.5 -18q-32 0 -54.5 18t-37.5 77l-77 299h-1l-51 -324q-8 -49 -23 -67.5
t-47 -18.5q-28 0 -44.5 15t-16.5 50q0 12 6 45l65 403q5 37 33 65t71 28q38 0 63.5 -22.5t33.5 -57.5l78 -332h3z" />
    <glyph glyph-name="Iacute" unicode="&#xcd;" horiz-adv-x="660" 
d="M198 88v151h248v-151q0 -95 67 -95t67 95v415q0 96 -67 96t-67 -96v-139h-248v139q0 96 -67 96t-67 -96v-415q0 -95 67 -95t67 95z" />
    <glyph glyph-name="Iacute" unicode="&#x41d;" horiz-adv-x="660" 
d="M198 88v151h248v-151q0 -95 67 -95t67 95v415q0 96 -67 96t-67 -96v-139h-248v139q0 96 -67 96t-67 -96v-415q0 -95 67 -95t67 95z" />
    <glyph glyph-name="Icircumflex" unicode="&#xce;" horiz-adv-x="691" 
d="M60 295q0 -69 20.5 -124.5t57.5 -95t89 -61t116 -21.5t116.5 21.5t89.5 61t57 95t20 124.5t-20.5 125t-58 96t-89.5 61.5t-115 21.5t-115 -21.5t-89.5 -61.5t-58 -96t-20.5 -125zM203 293q0 85 39 133.5t101 48.5q63 0 102 -48.5t39 -133.5q0 -82 -39.5 -129t-101.5 -47
t-101 47t-39 129z" />
    <glyph glyph-name="Icircumflex" unicode="&#x41e;" horiz-adv-x="691" 
d="M60 295q0 -69 20.5 -124.5t57.5 -95t89 -61t116 -21.5t116.5 21.5t89.5 61t57 95t20 124.5t-20.5 125t-58 96t-89.5 61.5t-115 21.5t-115 -21.5t-89.5 -61.5t-58 -96t-20.5 -125zM203 293q0 85 39 133.5t101 48.5q63 0 102 -48.5t39 -133.5q0 -82 -39.5 -129t-101.5 -47
t-101 47t-39 129z" />
    <glyph glyph-name="Idieresis" unicode="&#xcf;" horiz-adv-x="660" 
d="M221 88v384h248v-384q0 -95 67 -95t67 95v408q0 95 -92 95h-332q-92 0 -92 -95v-408q0 -95 67 -95t67 95z" />
    <glyph glyph-name="Idieresis" unicode="&#x41f;" horiz-adv-x="660" 
d="M221 88v384h248v-384q0 -95 67 -95t67 95v408q0 95 -92 95h-332q-92 0 -92 -95v-408q0 -95 67 -95t67 95z" />
    <glyph glyph-name="Eth" unicode="&#xd0;" horiz-adv-x="566" 
d="M254 312h-58v155h58q93 0 93 -77q0 -78 -93 -78zM196 88v102h91q98 0 152 53.5t54 146.5q0 92 -57.5 146.5t-159.5 54.5h-121q-57 0 -75 -22.5t-18 -71.5v-409q0 -95 67 -95t67 95z" />
    <glyph glyph-name="Eth" unicode="&#x420;" horiz-adv-x="566" 
d="M254 312h-58v155h58q93 0 93 -77q0 -78 -93 -78zM196 88v102h91q98 0 152 53.5t54 146.5q0 92 -57.5 146.5t-159.5 54.5h-121q-57 0 -75 -22.5t-18 -71.5v-409q0 -95 67 -95t67 95z" />
    <glyph glyph-name="Ntilde" unicode="&#xd1;" horiz-adv-x="607" 
d="M351 -7q82 0 132 29.5t50 67.5q0 23 -17 40.5t-37 17.5q-23 0 -52 -14.5t-70 -14.5q-66 0 -106 46t-40 127q0 83 39.5 131.5t102.5 48.5q37 0 66 -11.5t51 -11.5t39 17.5t17 40.5q0 18 -13 34.5t-36 29t-55 20.5t-70 8q-60 0 -111.5 -21.5t-89.5 -61t-60 -96t-22 -125.5
q0 -70 20.5 -126t58 -95t89.5 -60t114 -21z" />
    <glyph glyph-name="Ntilde" unicode="&#x421;" horiz-adv-x="607" 
d="M351 -7q82 0 132 29.5t50 67.5q0 23 -17 40.5t-37 17.5q-23 0 -52 -14.5t-70 -14.5q-66 0 -106 46t-40 127q0 83 39.5 131.5t102.5 48.5q37 0 66 -11.5t51 -11.5t39 17.5t17 40.5q0 18 -13 34.5t-36 29t-55 20.5t-70 8q-60 0 -111.5 -21.5t-89.5 -61t-60 -96t-22 -125.5
q0 -70 20.5 -126t58 -95t89.5 -60t114 -21z" />
    <glyph glyph-name="Ograve" unicode="&#xd2;" horiz-adv-x="582" 
d="M165 466h50v-378q0 -95 67 -95t67 95v378h50q96 0 96 62q0 63 -96 63h-234q-96 0 -96 -63q0 -62 96 -62z" />
    <glyph glyph-name="Ograve" unicode="&#x422;" horiz-adv-x="582" 
d="M165 466h50v-378q0 -95 67 -95t67 95v378h50q96 0 96 62q0 63 -96 63h-234q-96 0 -96 -63q0 -62 96 -62z" />
    <glyph glyph-name="Oacute" unicode="&#xd3;" horiz-adv-x="622" 
d="M262 -117q20 0 36 8.5t31 46.5l215 553q5 12 7 24t2 22q0 29 -15.5 45.5t-46.5 16.5q-26 0 -40 -14.5t-27 -48.5l-106 -282h-3l-116 287q-13 31 -26 44.5t-36 13.5q-29 0 -46.5 -19t-17.5 -48q0 -20 8 -38l167 -413l-38 -95q-8 -19 -8 -39q0 -29 15 -46.5t45 -17.5z" />
    <glyph glyph-name="Oacute" unicode="&#x423;" horiz-adv-x="622" 
d="M262 -117q20 0 36 8.5t31 46.5l215 553q5 12 7 24t2 22q0 29 -15.5 45.5t-46.5 16.5q-26 0 -40 -14.5t-27 -48.5l-106 -282h-3l-116 287q-13 31 -26 44.5t-36 13.5q-29 0 -46.5 -19t-17.5 -48q0 -20 8 -38l167 -413l-38 -95q-8 -19 -8 -39q0 -29 15 -46.5t45 -17.5z" />
    <glyph glyph-name="Ocircumflex" unicode="&#xd4;" horiz-adv-x="805" 
d="M405 -7q34 0 50.5 19.5t16.5 66.5v20h43q48 0 88 14.5t69 41.5t45.5 64.5t16.5 82.5t-15.5 82t-44.5 64t-69 42t-90 15h-43v13q0 44 -17.5 62.5t-49.5 18.5t-48.5 -18.5t-16.5 -62.5v-13h-44q-49 0 -89.5 -15t-69 -42t-44 -64t-15.5 -82t16 -82.5t45 -64.5t69 -41.5
t88 -14.5h44v-20q0 -47 16 -66.5t49 -19.5zM469 209v187h38q90 0 90 -94q0 -93 -90 -93h-38zM342 396v-187h-37q-90 0 -90 93q0 94 90 94h37z" />
    <glyph glyph-name="Ocircumflex" unicode="&#x424;" horiz-adv-x="805" 
d="M405 -7q34 0 50.5 19.5t16.5 66.5v20h43q48 0 88 14.5t69 41.5t45.5 64.5t16.5 82.5t-15.5 82t-44.5 64t-69 42t-90 15h-43v13q0 44 -17.5 62.5t-49.5 18.5t-48.5 -18.5t-16.5 -62.5v-13h-44q-49 0 -89.5 -15t-69 -42t-44 -64t-15.5 -82t16 -82.5t45 -64.5t69 -41.5
t88 -14.5h44v-20q0 -47 16 -66.5t49 -19.5zM469 209v187h38q90 0 90 -94q0 -93 -90 -93h-38zM342 396v-187h-37q-90 0 -90 93q0 94 90 94h37z" />
    <glyph glyph-name="Otilde" unicode="&#xd5;" horiz-adv-x="651" 
d="M200 43l119 168l120 -169q34 -49 73 -49q25 0 43 17.5t18 39.5q0 12 -6 27.5t-24 40.5l-145 195l109 158q31 45 31 69q0 22 -18.5 40.5t-40.5 18.5q-37 0 -73 -51l-85 -125l-82 124q-35 52 -70 52q-29 0 -47 -18.5t-18 -43.5q0 -11 7 -26t23 -40l108 -158l-143 -194
q-19 -25 -24.5 -41t-5.5 -27q0 -22 18 -40t42 -18q19 0 36 12.5t35 37.5z" />
    <glyph glyph-name="Otilde" unicode="&#x425;" horiz-adv-x="651" 
d="M200 43l119 168l120 -169q34 -49 73 -49q25 0 43 17.5t18 39.5q0 12 -6 27.5t-24 40.5l-145 195l109 158q31 45 31 69q0 22 -18.5 40.5t-40.5 18.5q-37 0 -73 -51l-85 -125l-82 124q-35 52 -70 52q-29 0 -47 -18.5t-18 -43.5q0 -11 7 -26t23 -40l108 -158l-143 -194
q-19 -25 -24.5 -41t-5.5 -27q0 -22 18 -40t42 -18q19 0 36 12.5t35 37.5z" />
    <glyph glyph-name="Odieresis" unicode="&#xd6;" horiz-adv-x="722" 
d="M445 113h-213v390q0 96 -67 96q-68 0 -68 -96v-407q0 -96 93 -96h432q28 0 44 13.5t16 41.5q0 29 -16 43.5t-44 14.5h-43v390q0 96 -67 96t-67 -96v-390z" />
    <glyph glyph-name="Odieresis" unicode="&#x426;" horiz-adv-x="722" 
d="M445 113h-213v390q0 96 -67 96q-68 0 -68 -96v-407q0 -96 93 -96h432q28 0 44 13.5t16 41.5q0 29 -16 43.5t-44 14.5h-43v390q0 96 -67 96t-67 -96v-390z" />
    <glyph glyph-name="multiply" unicode="&#xd7;" horiz-adv-x="551" 
d="M354 319h-68q-52 0 -67.5 17.5t-15.5 61.5v106q0 95 -67 95t-67 -95v-106q0 -93 48.5 -146t145.5 -53h91v-111q0 -95 67 -95t67 95v416q0 95 -67 95t-67 -95v-185z" />
    <glyph glyph-name="multiply" unicode="&#x427;" horiz-adv-x="551" 
d="M354 319h-68q-52 0 -67.5 17.5t-15.5 61.5v106q0 95 -67 95t-67 -95v-106q0 -93 48.5 -146t145.5 -53h91v-111q0 -95 67 -95t67 95v416q0 95 -67 95t-67 -95v-185z" />
    <glyph glyph-name="Oslash" unicode="&#xd8;" horiz-adv-x="833" 
d="M643 503v-390h-157v390q0 48 -13 72t-47 24t-47 -24t-13 -72v-390h-157v390q0 96 -67 96t-67 -96v-407q0 -96 92 -96h518q93 0 93 96v407q0 96 -68 96q-67 0 -67 -96z" />
    <glyph glyph-name="Oslash" unicode="&#x428;" horiz-adv-x="833" 
d="M643 503v-390h-157v390q0 48 -13 72t-47 24t-47 -24t-13 -72v-390h-157v390q0 96 -67 96t-67 -96v-407q0 -96 92 -96h518q93 0 93 96v407q0 96 -68 96q-67 0 -67 -96z" />
    <glyph glyph-name="Ugrave" unicode="&#xd9;" horiz-adv-x="911" 
d="M484 113h157v390q0 96 67 96q68 0 68 -96v-390h45q28 0 44 -15t16 -45q0 -29 -16 -41t-44 -12h-656q-92 0 -92 96v407q0 96 67 96t67 -96v-390h157v390q0 48 13 72t47 24t47 -24t13 -72v-390z" />
    <glyph glyph-name="Ugrave" unicode="&#x429;" horiz-adv-x="911" 
d="M484 113h157v390q0 96 67 96q68 0 68 -96v-390h45q28 0 44 -15t16 -45q0 -29 -16 -41t-44 -12h-656q-92 0 -92 96v407q0 96 67 96t67 -96v-390h157v390q0 48 13 72t47 24t47 -24t13 -72v-390z" />
    <glyph glyph-name="Uacute" unicode="&#xda;" horiz-adv-x="687" 
d="M343 124v155h58q92 0 92 -78q0 -77 -92 -77h-58zM208 471v-376q0 -49 18.5 -72t74.5 -23h122q101 0 158 55t57 146q0 93 -53.5 147t-151.5 54h-90v101q0 49 -10 68.5t-47 19.5h-155q-28 0 -44 -15t-16 -45q0 -29 16 -44.5t44 -15.5h77z" />
    <glyph glyph-name="Uacute" unicode="&#x42a;" horiz-adv-x="687" 
d="M343 124v155h58q92 0 92 -78q0 -77 -92 -77h-58zM208 471v-376q0 -49 18.5 -72t74.5 -23h122q101 0 158 55t57 146q0 93 -53.5 147t-151.5 54h-90v101q0 49 -10 68.5t-47 19.5h-155q-28 0 -44 -15t-16 -45q0 -29 16 -44.5t44 -15.5h77z" />
    <glyph glyph-name="Ucircumflex" unicode="&#xdb;" horiz-adv-x="762" 
d="M205 124v155h43q92 0 92 -78q0 -77 -92 -77h-43zM205 402v101q0 96 -67 96t-67 -96v-408q0 -49 18 -72t75 -23h101q101 0 158.5 55t57.5 146q0 93 -53.5 147t-151.5 54h-71zM691 88v415q0 96 -68 96q-67 0 -67 -96v-415q0 -95 67 -95q68 0 68 95z" />
    <glyph glyph-name="Ucircumflex" unicode="&#x42b;" horiz-adv-x="762" 
d="M205 124v155h43q92 0 92 -78q0 -77 -92 -77h-43zM205 402v101q0 96 -67 96t-67 -96v-408q0 -49 18 -72t75 -23h101q101 0 158.5 55t57.5 146q0 93 -53.5 147t-151.5 54h-71zM691 88v415q0 96 -68 96q-67 0 -67 -96v-415q0 -95 67 -95q68 0 68 95z" />
    <glyph glyph-name="Udieresis" unicode="&#xdc;" 
d="M205 124v155h58q93 0 93 -78q0 -77 -93 -77h-58zM205 402v101q0 96 -67 96t-67 -96v-408q0 -49 18 -72t75 -23h121q102 0 159.5 55t57.5 146q0 93 -54 147t-152 54h-91z" />
    <glyph glyph-name="Udieresis" unicode="&#x42c;" 
d="M205 124v155h58q93 0 93 -78q0 -77 -93 -77h-58zM205 402v101q0 96 -67 96t-67 -96v-408q0 -49 18 -72t75 -23h121q102 0 159.5 55t57.5 146q0 93 -54 147t-152 54h-91z" />
    <glyph glyph-name="Yacute" unicode="&#xdd;" horiz-adv-x="606" 
d="M227 249h155q-7 -61 -46 -95.5t-97 -34.5q-41 0 -70.5 14.5t-51.5 14.5q-20 0 -36.5 -17.5t-16.5 -40.5q0 -38 50 -67.5t131 -29.5q63 0 115 21t89.5 60t58 95t20.5 126q0 69 -22 125.5t-60.5 96t-90 61t-111.5 21.5q-77 0 -125 -28.5t-48 -63.5q0 -23 16.5 -40.5
t39.5 -17.5q22 0 51 11.5t65 11.5q55 0 93.5 -30.5t45.5 -81.5h-154q-64 0 -64 -54q0 -26 16 -41.5t47 -15.5z" />
    <glyph glyph-name="Yacute" unicode="&#x42d;" horiz-adv-x="606" 
d="M227 249h155q-7 -61 -46 -95.5t-97 -34.5q-41 0 -70.5 14.5t-51.5 14.5q-20 0 -36.5 -17.5t-16.5 -40.5q0 -38 50 -67.5t131 -29.5q63 0 115 21t89.5 60t58 95t20.5 126q0 69 -22 125.5t-60.5 96t-90 61t-111.5 21.5q-77 0 -125 -28.5t-48 -63.5q0 -23 16.5 -40.5
t39.5 -17.5q22 0 51 11.5t65 11.5q55 0 93.5 -30.5t45.5 -81.5h-154q-64 0 -64 -54q0 -26 16 -41.5t47 -15.5z" />
    <glyph glyph-name="Thorn" unicode="&#xde;" horiz-adv-x="826" 
d="M284 361h-88v142q0 96 -67 96t-67 -96v-415q0 -95 67 -95t67 95v161h86q11 -125 77 -190.5t168 -65.5q110 0 178.5 77.5t68.5 224.5q0 148 -68.5 226t-178.5 78q-98 0 -163 -61.5t-80 -176.5zM527 484q48 0 77.5 -48.5t29.5 -139.5t-29.5 -140t-77.5 -49t-77.5 49
t-29.5 140t30 139.5t77 48.5z" />
    <glyph glyph-name="Thorn" unicode="&#x42e;" horiz-adv-x="826" 
d="M284 361h-88v142q0 96 -67 96t-67 -96v-415q0 -95 67 -95t67 95v161h86q11 -125 77 -190.5t168 -65.5q110 0 178.5 77.5t68.5 224.5q0 148 -68.5 226t-178.5 78q-98 0 -163 -61.5t-80 -176.5zM527 484q48 0 77.5 -48.5t29.5 -139.5t-29.5 -140t-77.5 -49t-77.5 49
t-29.5 140t30 139.5t77 48.5z" />
    <glyph glyph-name="germandbls" unicode="&#xdf;" horiz-adv-x="584" 
d="M368 467v-144h-62q-41 0 -63.5 19.5t-22.5 54.5q0 33 22 51.5t62 18.5h64zM503 88v409q0 49 -18.5 71.5t-74.5 22.5h-105q-109 0 -167 -51t-58 -133q0 -64 37 -106.5t104 -53.5l-106 -118q-40 -44 -40 -77q0 -26 18.5 -42.5t46.5 -16.5q20 0 36 10.5t35 32.5l157 198
v-146q0 -95 68 -95q67 0 67 95z" />
    <glyph glyph-name="germandbls" unicode="&#x42f;" horiz-adv-x="584" 
d="M368 467v-144h-62q-41 0 -63.5 19.5t-22.5 54.5q0 33 22 51.5t62 18.5h64zM503 88v409q0 49 -18.5 71.5t-74.5 22.5h-105q-109 0 -167 -51t-58 -133q0 -64 37 -106.5t104 -53.5l-106 -118q-40 -44 -40 -77q0 -26 18.5 -42.5t46.5 -16.5q20 0 36 10.5t35 32.5l157 198
v-146q0 -95 68 -95q67 0 67 95z" />
    <glyph glyph-name="agrave" unicode="&#xe0;" horiz-adv-x="656" 
d="M330 599q-71 0 -103 -87l-154 -417q-6 -18 -6 -39q0 -28 18 -45.5t46 -17.5q46 0 65 59l24 74h209l22 -69q20 -64 71 -64q28 0 47.5 16.5t19.5 44.5q0 9 -2.5 19t-7.5 23l-149 426q-28 77 -100 77zM259 245l67 208h2l65 -208h-134z" />
    <glyph glyph-name="agrave" unicode="&#x430;" horiz-adv-x="656" 
d="M330 599q-71 0 -103 -87l-154 -417q-6 -18 -6 -39q0 -28 18 -45.5t46 -17.5q46 0 65 59l24 74h209l22 -69q20 -64 71 -64q28 0 47.5 16.5t19.5 44.5q0 9 -2.5 19t-7.5 23l-149 426q-28 77 -100 77zM259 245l67 208h2l65 -208h-134z" />
    <glyph glyph-name="aacute" unicode="&#xe1;" horiz-adv-x="556" 
d="M203 124v155h58q93 0 93 -78q0 -77 -93 -77h-58zM294 402h-91v64h169q97 0 97 62q0 63 -97 63h-210q-57 0 -75 -22.5t-18 -71.5v-402q0 -49 18 -72t75 -23h121q102 0 159.5 55t57.5 146q0 93 -54 147t-152 54z" />
    <glyph glyph-name="aacute" unicode="&#x431;" horiz-adv-x="556" 
d="M203 124v155h58q93 0 93 -78q0 -77 -93 -77h-58zM294 402h-91v64h169q97 0 97 62q0 63 -97 63h-210q-57 0 -75 -22.5t-18 -71.5v-402q0 -49 18 -72t75 -23h121q102 0 159.5 55t57.5 146q0 93 -54 147t-152 54z" />
    <glyph glyph-name="acircumflex" unicode="&#xe2;" horiz-adv-x="578" 
d="M160 0h133q103 0 157 48.5t54 129.5q0 55 -23 85.5t-75 47.5v2q42 21 56 54t14 77q0 67 -56.5 107t-147.5 40h-110q-57 0 -75 -22.5t-18 -71.5v-412q0 -48 18.5 -66.5t72.5 -18.5zM203 116v139h65q54 0 74 -16.5t20 -56.5q0 -32 -20 -49t-72 -17h-67zM203 360v116h58
q79 0 79 -57q0 -32 -17 -45.5t-62 -13.5h-58z" />
    <glyph glyph-name="acircumflex" unicode="&#x432;" horiz-adv-x="578" 
d="M160 0h133q103 0 157 48.5t54 129.5q0 55 -23 85.5t-75 47.5v2q42 21 56 54t14 77q0 67 -56.5 107t-147.5 40h-110q-57 0 -75 -22.5t-18 -71.5v-412q0 -48 18.5 -66.5t72.5 -18.5zM203 116v139h65q54 0 74 -16.5t20 -56.5q0 -32 -20 -49t-72 -17h-67zM203 360v116h58
q79 0 79 -57q0 -32 -17 -45.5t-62 -13.5h-58z" />
    <glyph glyph-name="atilde" unicode="&#xe3;" horiz-adv-x="489" 
d="M71 497v-409q0 -95 67 -95t67 95v378h110q96 0 96 62q0 63 -96 63h-151q-57 0 -75 -22.5t-18 -71.5z" />
    <glyph glyph-name="atilde" unicode="&#x433;" horiz-adv-x="489" 
d="M71 497v-409q0 -95 67 -95t67 95v378h110q96 0 96 62q0 63 -96 63h-151q-57 0 -75 -22.5t-18 -71.5z" />
    <glyph glyph-name="adieresis" unicode="&#xe4;" horiz-adv-x="700" 
d="M567 113l-143 411q-13 37 -38.5 56t-58.5 19q-69 0 -100 -84l-148 -402h-17q-28 0 -40.5 -13.5t-12.5 -44.5q0 -25 12.5 -40t40.5 -15h525q28 0 43.5 15t15.5 40q0 26 -15.5 42t-43.5 16h-20zM323 457h2l107 -344h-220z" />
    <glyph glyph-name="adieresis" unicode="&#x434;" horiz-adv-x="700" 
d="M567 113l-143 411q-13 37 -38.5 56t-58.5 19q-69 0 -100 -84l-148 -402h-17q-28 0 -40.5 -13.5t-12.5 -44.5q0 -25 12.5 -40t40.5 -15h525q28 0 43.5 15t15.5 40q0 26 -15.5 42t-43.5 16h-20zM323 457h2l107 -344h-220z" />
    <glyph glyph-name="aring" unicode="&#xe5;" horiz-adv-x="487" 
d="M315 591h-151q-57 0 -75 -22.5t-18 -71.5v-412q0 -48 18.5 -66.5t72.5 -18.5h157q96 0 96 62q0 63 -96 63h-114v111h95q95 0 95 62t-95 62h-95v106h110q96 0 96 62q0 63 -96 63z" />
    <glyph glyph-name="aring" unicode="&#x435;" horiz-adv-x="487" 
d="M315 591h-151q-57 0 -75 -22.5t-18 -71.5v-412q0 -48 18.5 -66.5t72.5 -18.5h157q96 0 96 62q0 63 -96 63h-114v111h95q95 0 95 62t-95 62h-95v106h110q96 0 96 62q0 63 -96 63z" />
    <glyph glyph-name="ae" unicode="&#xe6;" horiz-adv-x="906" 
d="M394 241v-153q0 -48 14 -71.5t48 -23.5t48.5 23.5t14.5 71.5v153l12 9l174 -210q18 -22 34.5 -34.5t38.5 -12.5t42 18t20 44q0 27 -34 67l-177 207l132 131q35 34 44.5 48t9.5 27q0 25 -20.5 44.5t-45.5 19.5q-18 0 -36 -14t-39 -34l-155 -160v112q0 48 -14.5 72
t-48.5 24t-48 -24t-14 -72v-112l-156 160q-20 20 -38 34t-35 14q-25 0 -46 -19.5t-21 -44.5q0 -13 9.5 -27t44.5 -48l132 -131l-177 -207q-34 -38 -34 -67q0 -26 19.5 -44t42.5 -18t39 12.5t33 34.5l175 210z" />
    <glyph glyph-name="ae" unicode="&#x436;" horiz-adv-x="906" 
d="M394 241v-153q0 -48 14 -71.5t48 -23.5t48.5 23.5t14.5 71.5v153l12 9l174 -210q18 -22 34.5 -34.5t38.5 -12.5t42 18t20 44q0 27 -34 67l-177 207l132 131q35 34 44.5 48t9.5 27q0 25 -20.5 44.5t-45.5 19.5q-18 0 -36 -14t-39 -34l-155 -160v112q0 48 -14.5 72
t-48.5 24t-48 -24t-14 -72v-112l-156 160q-20 20 -38 34t-35 14q-25 0 -46 -19.5t-21 -44.5q0 -13 9.5 -27t44.5 -48l132 -131l-177 -207q-34 -38 -34 -67q0 -26 19.5 -44t42.5 -18t39 12.5t33 34.5l175 210z" />
    <glyph glyph-name="ccedilla" unicode="&#xe7;" horiz-adv-x="587" 
d="M405 313v3q37 16 58.5 43t21.5 77q0 79 -52.5 121t-157.5 42q-37 0 -70.5 -6t-59 -17.5t-40.5 -27t-15 -33.5q0 -31 15 -41t41 -10q17 0 31 3.5t28 8t29.5 8t36.5 3.5q81 0 81 -64q0 -29 -22.5 -42.5t-53.5 -13.5h-36q-38 0 -61.5 -15.5t-23.5 -41.5q0 -28 23.5 -42
t61.5 -14h36q40 0 62 -21.5t22 -50.5q0 -32 -22.5 -50.5t-67.5 -18.5q-38 0 -56.5 5t-31 10.5t-24 10.5t-35.5 5t-40 -12t-16 -39q0 -26 15.5 -45t42.5 -31t63.5 -18t78.5 -6q66 0 110.5 13.5t72 38.5t39 59t11.5 74t-23 78t-72 57z" />
    <glyph glyph-name="ccedilla" unicode="&#x437;" horiz-adv-x="587" 
d="M405 313v3q37 16 58.5 43t21.5 77q0 79 -52.5 121t-157.5 42q-37 0 -70.5 -6t-59 -17.5t-40.5 -27t-15 -33.5q0 -31 15 -41t41 -10q17 0 31 3.5t28 8t29.5 8t36.5 3.5q81 0 81 -64q0 -29 -22.5 -42.5t-53.5 -13.5h-36q-38 0 -61.5 -15.5t-23.5 -41.5q0 -28 23.5 -42
t61.5 -14h36q40 0 62 -21.5t22 -50.5q0 -32 -22.5 -50.5t-67.5 -18.5q-38 0 -56.5 5t-31 10.5t-24 10.5t-35.5 5t-40 -12t-16 -39q0 -26 15.5 -45t42.5 -31t63.5 -18t78.5 -6q66 0 110.5 13.5t72 38.5t39 59t11.5 74t-23 78t-72 57z" />
    <glyph glyph-name="egrave" unicode="&#xe8;" horiz-adv-x="658" 
d="M451 360v-272q0 -95 67 -95t67 95v420q0 44 -14.5 67.5t-47.5 23.5q-23 0 -39 -11.5t-32 -32.5l-249 -329v277q0 96 -67 96t-67 -96v-430q0 -41 14 -60.5t46 -19.5q22 0 40.5 9.5t37.5 35.5z" />
    <glyph glyph-name="egrave" unicode="&#x438;" horiz-adv-x="658" 
d="M451 360v-272q0 -95 67 -95t67 95v420q0 44 -14.5 67.5t-47.5 23.5q-23 0 -39 -11.5t-32 -32.5l-249 -329v277q0 96 -67 96t-67 -96v-430q0 -41 14 -60.5t46 -19.5q22 0 40.5 9.5t37.5 35.5z" />
    <glyph glyph-name="eacute" unicode="&#xe9;" horiz-adv-x="669" 
d="M329 598q-61 0 -99 29.5t-38 66.5q0 21 11.5 33.5t31.5 12.5t27.5 -8.5t14 -18.5t17 -18.5t35.5 -8.5t35.5 8.5t16.5 18.5t13.5 18.5t27.5 8.5q21 0 32.5 -12.5t11.5 -33.5q0 -38 -38 -67t-99 -29zM453 360v-272q0 -95 67 -95t67 95v420q0 44 -14.5 67.5t-47.5 23.5
q-23 0 -39 -11.5t-32 -32.5l-249 -329v277q0 96 -67 96t-67 -96v-430q0 -41 14 -60.5t46 -19.5q22 0 40.5 9.5t37.5 35.5z" />
    <glyph glyph-name="eacute" unicode="&#x439;" horiz-adv-x="669" 
d="M329 598q-61 0 -99 29.5t-38 66.5q0 21 11.5 33.5t31.5 12.5t27.5 -8.5t14 -18.5t17 -18.5t35.5 -8.5t35.5 8.5t16.5 18.5t13.5 18.5t27.5 8.5q21 0 32.5 -12.5t11.5 -33.5q0 -38 -38 -67t-99 -29zM453 360v-272q0 -95 67 -95t67 95v420q0 44 -14.5 67.5t-47.5 23.5
q-23 0 -39 -11.5t-32 -32.5l-249 -329v277q0 96 -67 96t-67 -96v-430q0 -41 14 -60.5t46 -19.5q22 0 40.5 9.5t37.5 35.5z" />
    <glyph glyph-name="ecircumflex" unicode="&#xea;" horiz-adv-x="613" 
d="M71 503v-415q0 -95 67 -95t67 95v140l24 19l178 -207q18 -22 34.5 -34.5t38.5 -12.5t42 18t20 44q0 27 -34 67l-181 203l137 135q34 34 43.5 48t9.5 27q0 25 -20.5 44.5t-45.5 19.5q-18 0 -36 -14t-38 -34l-172 -177v129q0 96 -67 96t-67 -96z" />
    <glyph glyph-name="ecircumflex" unicode="&#x43a;" horiz-adv-x="613" 
d="M71 503v-415q0 -95 67 -95t67 95v140l24 19l178 -207q18 -22 34.5 -34.5t38.5 -12.5t42 18t20 44q0 27 -34 67l-181 203l137 135q34 34 43.5 48t9.5 27q0 25 -20.5 44.5t-45.5 19.5q-18 0 -36 -14t-38 -34l-172 -177v129q0 96 -67 96t-67 -96z" />
    <glyph glyph-name="edieresis" unicode="&#xeb;" horiz-adv-x="645" 
d="M196 52l130 401h2l123 -396q20 -64 71 -64q28 0 47.5 16.5t19.5 44.5q0 9 -2.5 19t-7.5 23l-149 426q-28 77 -100 77q-71 0 -103 -87l-154 -417q-6 -18 -6 -39q0 -28 18 -45.5t46 -17.5q46 0 65 59z" />
    <glyph glyph-name="edieresis" unicode="&#x43b;" horiz-adv-x="645" 
d="M196 52l130 401h2l123 -396q20 -64 71 -64q28 0 47.5 16.5t19.5 44.5q0 9 -2.5 19t-7.5 23l-149 426q-28 77 -100 77q-71 0 -103 -87l-154 -417q-6 -18 -6 -39q0 -28 18 -45.5t46 -17.5q46 0 65 59z" />
    <glyph glyph-name="igrave" unicode="&#xec;" horiz-adv-x="831" 
d="M420 187l78 332q8 35 33.5 57.5t62.5 22.5q44 0 72 -28t34 -65l65 -403q2 -17 3 -27.5t1 -17.5q0 -35 -15.5 -50t-44.5 -15q-31 0 -47 18.5t-23 67.5l-51 324h-2l-76 -299q-15 -59 -37.5 -77t-53.5 -18q-32 0 -54.5 18t-37.5 77l-77 299h-1l-51 -324q-8 -49 -23 -67.5
t-47 -18.5q-28 0 -44.5 15t-16.5 50q0 12 6 45l65 403q5 37 33 65t71 28q38 0 63.5 -22.5t33.5 -57.5l78 -332h3z" />
    <glyph glyph-name="igrave" unicode="&#x43c;" horiz-adv-x="831" 
d="M420 187l78 332q8 35 33.5 57.5t62.5 22.5q44 0 72 -28t34 -65l65 -403q2 -17 3 -27.5t1 -17.5q0 -35 -15.5 -50t-44.5 -15q-31 0 -47 18.5t-23 67.5l-51 324h-2l-76 -299q-15 -59 -37.5 -77t-53.5 -18q-32 0 -54.5 18t-37.5 77l-77 299h-1l-51 -324q-8 -49 -23 -67.5
t-47 -18.5q-28 0 -44.5 15t-16.5 50q0 12 6 45l65 403q5 37 33 65t71 28q38 0 63.5 -22.5t33.5 -57.5l78 -332h3z" />
    <glyph glyph-name="iacute" unicode="&#xed;" horiz-adv-x="633" 
d="M205 88v151h248v-151q0 -95 67 -95t67 95v415q0 96 -67 96t-67 -96v-139h-248v139q0 96 -67 96t-67 -96v-415q0 -95 67 -95t67 95z" />
    <glyph glyph-name="iacute" unicode="&#x43d;" horiz-adv-x="633" 
d="M205 88v151h248v-151q0 -95 67 -95t67 95v415q0 96 -67 96t-67 -96v-139h-248v139q0 96 -67 96t-67 -96v-415q0 -95 67 -95t67 95z" />
    <glyph glyph-name="icircumflex" unicode="&#xee;" horiz-adv-x="706" 
d="M64 295q0 -69 20.5 -124.5t57.5 -95t89 -61t116 -21.5t116.5 21.5t89.5 61t57 95t20 124.5t-20.5 125t-58 96t-89.5 61.5t-115 21.5t-115 -21.5t-89.5 -61.5t-58 -96t-20.5 -125zM210 295q0 85 39 133.5t101 48.5q63 0 102 -48.5t39 -133.5q0 -82 -39.5 -129t-101.5 -47
t-101 47t-39 129z" />
    <glyph glyph-name="icircumflex" unicode="&#x43e;" horiz-adv-x="706" 
d="M64 295q0 -69 20.5 -124.5t57.5 -95t89 -61t116 -21.5t116.5 21.5t89.5 61t57 95t20 124.5t-20.5 125t-58 96t-89.5 61.5t-115 21.5t-115 -21.5t-89.5 -61.5t-58 -96t-20.5 -125zM210 295q0 85 39 133.5t101 48.5q63 0 102 -48.5t39 -133.5q0 -82 -39.5 -129t-101.5 -47
t-101 47t-39 129z" />
    <glyph glyph-name="idieresis" unicode="&#xef;" horiz-adv-x="653" 
d="M207 88v384h248v-384q0 -95 67 -95t67 95v408q0 95 -92 95h-332q-92 0 -92 -95v-408q0 -95 67 -95t67 95z" />
    <glyph glyph-name="idieresis" unicode="&#x43f;" horiz-adv-x="653" 
d="M207 88v384h248v-384q0 -95 67 -95t67 95v408q0 95 -92 95h-332q-92 0 -92 -95v-408q0 -95 67 -95t67 95z" />
    <glyph glyph-name="eth" unicode="&#xf0;" horiz-adv-x="564" 
d="M263 312h-58v155h58q93 0 93 -77q0 -78 -93 -78zM205 88v102h91q98 0 152 53.5t54 146.5q0 92 -57.5 146.5t-159.5 54.5h-121q-57 0 -75 -22.5t-18 -71.5v-409q0 -95 67 -95t67 95z" />
    <glyph glyph-name="eth" unicode="&#x440;" horiz-adv-x="564" 
d="M263 312h-58v155h58q93 0 93 -77q0 -78 -93 -78zM205 88v102h91q98 0 152 53.5t54 146.5q0 92 -57.5 146.5t-159.5 54.5h-121q-57 0 -75 -22.5t-18 -71.5v-409q0 -95 67 -95t67 95z" />
    <glyph glyph-name="ntilde" unicode="&#xf1;" horiz-adv-x="611" 
d="M353 -7q82 0 132 29.5t50 67.5q0 23 -17 40.5t-37 17.5q-23 0 -52 -14.5t-70 -14.5q-66 0 -106 46t-40 127q0 83 39.5 131.5t102.5 48.5q37 0 66 -11.5t51 -11.5t39 17.5t17 40.5q0 18 -13 34.5t-36 29t-55 20.5t-70 8q-60 0 -111.5 -21.5t-89.5 -61t-60 -96t-22 -125.5
q0 -70 20.5 -126t58 -95t89.5 -60t114 -21z" />
    <glyph glyph-name="ntilde" unicode="&#x441;" horiz-adv-x="611" 
d="M353 -7q82 0 132 29.5t50 67.5q0 23 -17 40.5t-37 17.5q-23 0 -52 -14.5t-70 -14.5q-66 0 -106 46t-40 127q0 83 39.5 131.5t102.5 48.5q37 0 66 -11.5t51 -11.5t39 17.5t17 40.5q0 18 -13 34.5t-36 29t-55 20.5t-70 8q-60 0 -111.5 -21.5t-89.5 -61t-60 -96t-22 -125.5
q0 -70 20.5 -126t58 -95t89.5 -60t114 -21z" />
    <glyph glyph-name="ograve" unicode="&#xf2;" horiz-adv-x="555" 
d="M169 466h50v-378q0 -95 67 -95t67 95v378h50q96 0 96 62q0 63 -96 63h-234q-96 0 -96 -63q0 -62 96 -62z" />
    <glyph glyph-name="ograve" unicode="&#x442;" horiz-adv-x="555" 
d="M169 466h50v-378q0 -95 67 -95t67 95v378h50q96 0 96 62q0 63 -96 63h-234q-96 0 -96 -63q0 -62 96 -62z" />
    <glyph glyph-name="oacute" unicode="&#xf3;" horiz-adv-x="611" 
d="M253 -117q20 0 36 8.5t31 46.5l215 553q5 12 7 24t2 22q0 29 -15.5 45.5t-46.5 16.5q-26 0 -40 -14.5t-27 -48.5l-106 -282h-3l-116 287q-13 31 -26 44.5t-36 13.5q-29 0 -46.5 -19t-17.5 -48q0 -20 8 -38l167 -413l-38 -95q-8 -19 -8 -39q0 -29 15 -46.5t45 -17.5z" />
    <glyph glyph-name="oacute" unicode="&#x443;" horiz-adv-x="611" 
d="M253 -117q20 0 36 8.5t31 46.5l215 553q5 12 7 24t2 22q0 29 -15.5 45.5t-46.5 16.5q-26 0 -40 -14.5t-27 -48.5l-106 -282h-3l-116 287q-13 31 -26 44.5t-36 13.5q-29 0 -46.5 -19t-17.5 -48q0 -20 8 -38l167 -413l-38 -95q-8 -19 -8 -39q0 -29 15 -46.5t45 -17.5z" />
    <glyph glyph-name="ocircumflex" unicode="&#xf4;" horiz-adv-x="793" 
d="M400 -7q34 0 50.5 19.5t16.5 66.5v20h43q48 0 88 14.5t69 41.5t45.5 64.5t16.5 82.5t-15.5 82t-44.5 64t-69 42t-90 15h-43v13q0 44 -17.5 62.5t-49.5 18.5t-48.5 -18.5t-16.5 -62.5v-13h-44q-49 0 -89.5 -15t-69 -42t-44 -64t-15.5 -82t16 -82.5t45 -64.5t69 -41.5
t88 -14.5h44v-20q0 -47 16 -66.5t49 -19.5zM464 209v187h38q90 0 90 -94q0 -93 -90 -93h-38zM337 396v-187h-37q-90 0 -90 93q0 94 90 94h37z" />
    <glyph glyph-name="ocircumflex" unicode="&#x444;" horiz-adv-x="793" 
d="M400 -7q34 0 50.5 19.5t16.5 66.5v20h43q48 0 88 14.5t69 41.5t45.5 64.5t16.5 82.5t-15.5 82t-44.5 64t-69 42t-90 15h-43v13q0 44 -17.5 62.5t-49.5 18.5t-48.5 -18.5t-16.5 -62.5v-13h-44q-49 0 -89.5 -15t-69 -42t-44 -64t-15.5 -82t16 -82.5t45 -64.5t69 -41.5
t88 -14.5h44v-20q0 -47 16 -66.5t49 -19.5zM464 209v187h38q90 0 90 -94q0 -93 -90 -93h-38zM337 396v-187h-37q-90 0 -90 93q0 94 90 94h37z" />
    <glyph glyph-name="otilde" unicode="&#xf5;" horiz-adv-x="624" 
d="M202 43l119 168l120 -169q34 -49 73 -49q25 0 43 17.5t18 39.5q0 12 -6 27.5t-24 40.5l-145 195l109 158q31 45 31 69q0 22 -18.5 40.5t-40.5 18.5q-37 0 -73 -51l-85 -125l-82 124q-35 52 -70 52q-29 0 -47 -18.5t-18 -43.5q0 -11 7 -26t23 -40l108 -158l-143 -194
q-19 -25 -24.5 -41t-5.5 -27q0 -22 18 -40t42 -18q19 0 36 12.5t35 37.5z" />
    <glyph glyph-name="otilde" unicode="&#x445;" horiz-adv-x="624" 
d="M202 43l119 168l120 -169q34 -49 73 -49q25 0 43 17.5t18 39.5q0 12 -6 27.5t-24 40.5l-145 195l109 158q31 45 31 69q0 22 -18.5 40.5t-40.5 18.5q-37 0 -73 -51l-85 -125l-82 124q-35 52 -70 52q-29 0 -47 -18.5t-18 -43.5q0 -11 7 -26t23 -40l108 -158l-143 -194
q-19 -25 -24.5 -41t-5.5 -27q0 -22 18 -40t42 -18q19 0 36 12.5t35 37.5z" />
    <glyph glyph-name="odieresis" unicode="&#xf6;" horiz-adv-x="720" 
d="M439 113h-213v390q0 96 -67 96q-68 0 -68 -96v-407q0 -96 93 -96h432q28 0 44 13.5t16 41.5q0 29 -16 43.5t-44 14.5h-43v390q0 96 -67 96t-67 -96v-390z" />
    <glyph glyph-name="odieresis" unicode="&#x446;" horiz-adv-x="720" 
d="M439 113h-213v390q0 96 -67 96q-68 0 -68 -96v-407q0 -96 93 -96h432q28 0 44 13.5t16 41.5q0 29 -16 43.5t-44 14.5h-43v390q0 96 -67 96t-67 -96v-390z" />
    <glyph glyph-name="divide" unicode="&#xf7;" horiz-adv-x="537" 
d="M349 319h-68q-52 0 -67.5 17.5t-15.5 61.5v106q0 95 -67 95t-67 -95v-106q0 -93 48.5 -146t145.5 -53h91v-111q0 -95 67 -95t67 95v416q0 95 -67 95t-67 -95v-185z" />
    <glyph glyph-name="divide" unicode="&#x447;" horiz-adv-x="537" 
d="M349 319h-68q-52 0 -67.5 17.5t-15.5 61.5v106q0 95 -67 95t-67 -95v-106q0 -93 48.5 -146t145.5 -53h91v-111q0 -95 67 -95t67 95v416q0 95 -67 95t-67 -95v-185z" />
    <glyph glyph-name="oslash" unicode="&#xf8;" horiz-adv-x="823" 
d="M635 503v-390h-157v390q0 48 -13 72t-47 24t-47 -24t-13 -72v-390h-157v390q0 96 -67 96t-67 -96v-407q0 -96 92 -96h518q93 0 93 96v407q0 96 -68 96q-67 0 -67 -96z" />
    <glyph glyph-name="oslash" unicode="&#x448;" horiz-adv-x="823" 
d="M635 503v-390h-157v390q0 48 -13 72t-47 24t-47 -24t-13 -72v-390h-157v390q0 96 -67 96t-67 -96v-407q0 -96 92 -96h518q93 0 93 96v407q0 96 -68 96q-67 0 -67 -96z" />
    <glyph glyph-name="ugrave" unicode="&#xf9;" horiz-adv-x="907" 
d="M480 113h157v390q0 96 67 96q68 0 68 -96v-390h45q28 0 44 -15t16 -45q0 -29 -16 -41t-44 -12h-656q-92 0 -92 96v407q0 96 67 96t67 -96v-390h157v390q0 48 13 72t47 24t47 -24t13 -72v-390z" />
    <glyph glyph-name="ugrave" unicode="&#x449;" horiz-adv-x="907" 
d="M480 113h157v390q0 96 67 96q68 0 68 -96v-390h45q28 0 44 -15t16 -45q0 -29 -16 -41t-44 -12h-656q-92 0 -92 96v407q0 96 67 96t67 -96v-390h157v390q0 48 13 72t47 24t47 -24t13 -72v-390z" />
    <glyph glyph-name="uacute" unicode="&#xfa;" horiz-adv-x="704" 
d="M343 124v155h58q92 0 92 -78q0 -77 -92 -77h-58zM208 471v-376q0 -49 18.5 -72t74.5 -23h122q101 0 158 55t57 146q0 93 -53.5 147t-151.5 54h-90v101q0 49 -10 68.5t-47 19.5h-155q-28 0 -44 -15t-16 -45q0 -29 16 -44.5t44 -15.5h77z" />
    <glyph glyph-name="uacute" unicode="&#x44a;" horiz-adv-x="704" 
d="M343 124v155h58q92 0 92 -78q0 -77 -92 -77h-58zM208 471v-376q0 -49 18.5 -72t74.5 -23h122q101 0 158 55t57 146q0 93 -53.5 147t-151.5 54h-90v101q0 49 -10 68.5t-47 19.5h-155q-28 0 -44 -15t-16 -45q0 -29 16 -44.5t44 -15.5h77z" />
    <glyph glyph-name="ucircumflex" unicode="&#xfb;" horiz-adv-x="743" 
d="M201 124v155h43q92 0 92 -78q0 -77 -92 -77h-43zM201 402v101q0 96 -67 96t-67 -96v-408q0 -49 18 -72t75 -23h101q101 0 158.5 55t57.5 146q0 93 -53.5 147t-151.5 54h-71zM687 88v415q0 96 -68 96q-67 0 -67 -96v-415q0 -95 67 -95q68 0 68 95z" />
    <glyph glyph-name="ucircumflex" unicode="&#x44b;" horiz-adv-x="743" 
d="M201 124v155h43q92 0 92 -78q0 -77 -92 -77h-43zM201 402v101q0 96 -67 96t-67 -96v-408q0 -49 18 -72t75 -23h101q101 0 158.5 55t57.5 146q0 93 -53.5 147t-151.5 54h-71zM687 88v415q0 96 -68 96q-67 0 -67 -96v-415q0 -95 67 -95q68 0 68 95z" />
    <glyph glyph-name="udieresis" unicode="&#xfc;" horiz-adv-x="566" 
d="M198 124v155h58q93 0 93 -78q0 -77 -93 -77h-58zM198 402v101q0 96 -67 96t-67 -96v-408q0 -49 18 -72t75 -23h121q102 0 159.5 55t57.5 146q0 93 -54 147t-152 54h-91z" />
    <glyph glyph-name="udieresis" unicode="&#x44c;" horiz-adv-x="566" 
d="M198 124v155h58q93 0 93 -78q0 -77 -93 -77h-58zM198 402v101q0 96 -67 96t-67 -96v-408q0 -49 18 -72t75 -23h121q102 0 159.5 55t57.5 146q0 93 -54 147t-152 54h-91z" />
    <glyph glyph-name="yacute" unicode="&#xfd;" horiz-adv-x="609" 
d="M236 249h155q-7 -61 -46 -95.5t-97 -34.5q-41 0 -70.5 14.5t-51.5 14.5q-20 0 -36.5 -17.5t-16.5 -40.5q0 -38 50 -67.5t131 -29.5q63 0 115 21t89.5 60t58 95t20.5 126q0 69 -22 125.5t-60.5 96t-90 61t-111.5 21.5q-77 0 -125 -28.5t-48 -63.5q0 -23 16.5 -40.5
t39.5 -17.5q22 0 51 11.5t65 11.5q55 0 93.5 -30.5t45.5 -81.5h-154q-64 0 -64 -54q0 -26 16 -41.5t47 -15.5z" />
    <glyph glyph-name="yacute" unicode="&#x44d;" horiz-adv-x="609" 
d="M236 249h155q-7 -61 -46 -95.5t-97 -34.5q-41 0 -70.5 14.5t-51.5 14.5q-20 0 -36.5 -17.5t-16.5 -40.5q0 -38 50 -67.5t131 -29.5q63 0 115 21t89.5 60t58 95t20.5 126q0 69 -22 125.5t-60.5 96t-90 61t-111.5 21.5q-77 0 -125 -28.5t-48 -63.5q0 -23 16.5 -40.5
t39.5 -17.5q22 0 51 11.5t65 11.5q55 0 93.5 -30.5t45.5 -81.5h-154q-64 0 -64 -54q0 -26 16 -41.5t47 -15.5z" />
    <glyph glyph-name="thorn" unicode="&#xfe;" horiz-adv-x="838" 
d="M291 361h-88v142q0 96 -67 96t-67 -96v-415q0 -95 67 -95t67 95v161h86q11 -125 77 -190.5t168 -65.5q110 0 178.5 77.5t68.5 224.5q0 148 -68.5 226t-178.5 78q-98 0 -163 -61.5t-80 -176.5zM534 484q48 0 77.5 -48.5t29.5 -139.5t-29.5 -140t-77.5 -49t-77.5 49
t-29.5 140t30 139.5t77 48.5z" />
    <glyph glyph-name="thorn" unicode="&#x44e;" horiz-adv-x="838" 
d="M291 361h-88v142q0 96 -67 96t-67 -96v-415q0 -95 67 -95t67 95v161h86q11 -125 77 -190.5t168 -65.5q110 0 178.5 77.5t68.5 224.5q0 148 -68.5 226t-178.5 78q-98 0 -163 -61.5t-80 -176.5zM534 484q48 0 77.5 -48.5t29.5 -139.5t-29.5 -140t-77.5 -49t-77.5 49
t-29.5 140t30 139.5t77 48.5z" />
    <glyph glyph-name="ydieresis" unicode="&#xff;" horiz-adv-x="580" 
d="M360 467v-144h-62q-41 0 -63.5 19.5t-22.5 54.5q0 33 22 51.5t62 18.5h64zM495 88v409q0 49 -18.5 71.5t-74.5 22.5h-105q-109 0 -167 -51t-58 -133q0 -64 37 -106.5t104 -53.5l-106 -118q-40 -44 -40 -77q0 -26 18.5 -42.5t46.5 -16.5q20 0 36 10.5t35 32.5l157 198
v-146q0 -95 68 -95q67 0 67 95z" />
    <glyph glyph-name="ydieresis" unicode="&#x44f;" horiz-adv-x="580" 
d="M360 467v-144h-62q-41 0 -63.5 19.5t-22.5 54.5q0 33 22 51.5t62 18.5h64zM495 88v409q0 49 -18.5 71.5t-74.5 22.5h-105q-109 0 -167 -51t-58 -133q0 -64 37 -106.5t104 -53.5l-106 -118q-40 -44 -40 -77q0 -26 18.5 -42.5t46.5 -16.5q20 0 36 10.5t35 32.5l157 198
v-146q0 -95 68 -95q67 0 67 95z" />
    <glyph glyph-name="guilsinglleft" unicode="&#x2039;" horiz-adv-x="320" 
d="M228 246l-72 53l72 53q12 9 20 18t8 29q0 24 -9.5 36.5t-23.5 12.5q-17 0 -36 -11.5t-44 -30.5q-36 -26 -55 -47t-19 -60q0 -40 20 -60.5t54 -45.5q25 -19 44 -30.5t35 -11.5q15 0 24.5 12.5t9.5 35.5q0 21 -8 29.5t-20 17.5z" />
    <glyph glyph-name="guilsinglright" unicode="&#x203a;" horiz-adv-x="316" 
d="M98 352l71 -53l-71 -54q-12 -8 -19.5 -17t-7.5 -30q0 -48 32 -48q16 0 34.5 11t44.5 30q35 26 55 47.5t20 60.5t-20.5 60t-54.5 46q-26 19 -43.5 30.5t-33.5 11.5q-34 0 -34 -48q0 -21 7 -29.5t20 -17.5z" />
  </font>
</defs>
</svg>
